<!-- Generated by IcoMoon.io -->
<svg version="1.1" xmlns="http://www.w3.org/2000/svg" width="32" height="32" viewBox="0 0 32 32">
<title>RankIcon</title>
<path d="M16.155 0.631c0.029 0 0.067 0 0.084 0 0.072 0.029 0.156 0.046 0.243 0.046 0.046 0 0.090-0.005 0.133-0.013l-0.004 0.001c0.021-0.002 0.045-0.003 0.070-0.003 0.073 0 0.144 0.010 0.212 0.030l-0.005-0.001c0.109 0.033 0.202 0.070 0.291 0.114l-0.011-0.005c0.029 0 0.054 0.033 0.079 0.042 0.181 0.037 0.339 0.086 0.49 0.149l-0.018-0.006c0.135 0.049 0.251 0.105 0.36 0.172l-0.008-0.005c0.054 0.047 0.114 0.092 0.178 0.13l0.006 0.003c0.124 0.048 0.23 0.118 0.318 0.205l-0-0 0.075-0.042c0 0.054 0.042 0.1 0.063 0.151 0.222 0 0.334 0.192 0.443 0.351 0-0.025 0.025-0.046 0.054-0.088 0.113 0.192 0.121 0.364 0.276 0.527l0.121 0.029c0.075 0.105-0.046 0.146 0.063 0.276 0.021-0.163 0-0.163 0.105-0.146l0.025 0.13c0.012 0.138 0.069 0.261 0.155 0.356l-0-0.001c0.034 0.047 0.065 0.101 0.090 0.157l0.002 0.006 0.109 0.372c0.033 0.121 0.084 0.222 0.18 0.188-0.063 0.201-0.033 0.188 0.088 0.334-0.075 0.029-0.054 0.113 0 0.205 0.056 0.093 0.090 0.206 0.092 0.325v0.001c-0.001 0.021-0.002 0.045-0.002 0.069s0.001 0.048 0.002 0.072l-0-0.003c0.142 0.138 0.142 0.155 0.109 0.372-0.008 0.048-0.012 0.103-0.012 0.159s0.005 0.111 0.013 0.165l-0.001-0.006c0.029 0.159 0.054 0.322 0.075 0.485 0.007 0.072 0.011 0.156 0.011 0.24s-0.004 0.168-0.012 0.251l0.001-0.011c-0.004 0.026-0.007 0.057-0.007 0.087 0 0.072 0.013 0.141 0.037 0.205l-0.001-0.004c0.006 0.029 0.010 0.062 0.010 0.096s-0.004 0.067-0.010 0.099l0.001-0.003s0 0.021-0.025 0.033c-0.015-0.050-0.030-0.091-0.049-0.132l0.003 0.006c-0.022 0.052-0.047 0.118-0.067 0.186l-0.004 0.014c0 0.075-0.025 0.155-0.046 0.23s-0.050 0.197-0.050 0.293c-0.012 0.103-0.048 0.195-0.102 0.274l0.001-0.002c-0.11 0.138-0.187 0.307-0.217 0.491l-0.001 0.006c-0.007 0.037-0.022 0.069-0.042 0.097l0-0.001c-0.054 0.105-0.138 0.192-0.192 0.297-0.090 0.12-0.162 0.258-0.21 0.408l-0.003 0.010c-0.015 0.040-0.039 0.074-0.071 0.1l-0 0c-0.087 0.052-0.149 0.138-0.167 0.24l-0 0.002c-0.019 0.031-0.041 0.057-0.067 0.079l-0 0c-0.060 0.059-0.114 0.125-0.16 0.196l-0.003 0.005c-0.058 0.093-0.131 0.17-0.215 0.232l-0.002 0.002c-0.147 0.109-0.264 0.249-0.344 0.411l-0.003 0.007c-0.029 0.056-0.076 0.099-0.132 0.125l-0.002 0.001c-0.056 0.028-0.105 0.063-0.146 0.104v0c-0.163 0.168-0.341 0.321-0.532 0.456l-0.012 0.008c-0.105 0.073-0.196 0.151-0.28 0.238l-0 0.001c-0.046 0.049-0.101 0.087-0.164 0.112l-0.003 0.001c-0.167 0.063-0.159 0.063-0.242 0.192l-0.042 0.063-0.205 0.092c0 0.033 0 0.054 0.029 0.1-0.029-0.002-0.062-0.003-0.096-0.003s-0.067 0.001-0.101 0.003l0.005-0c-0.019-0.004-0.041-0.006-0.063-0.006s-0.044 0.002-0.065 0.006l0.002-0c-0.192 0.092-0.418 0.159-0.581 0.255s-0.477 0.105-0.686 0.217c-0.217-0.029-0.418 0.134-0.631 0.084-0.009-0.003-0.019-0.004-0.029-0.004s-0.021 0.002-0.030 0.004l0.001-0c-0.055 0.026-0.12 0.041-0.188 0.041s-0.133-0.015-0.191-0.042l0.003 0.001c-0.041-0.022-0.089-0.035-0.14-0.035-0.032 0-0.063 0.005-0.092 0.014l0.002-0.001c-0.022 0.010-0.048 0.016-0.076 0.016-0.057 0-0.108-0.026-0.141-0.066l-0-0c-0.067-0.092-0.159-0.105-0.284-0.121-0.084-0.018-0.159-0.043-0.229-0.074l0.007 0.003c-0.033 0.054-0.084 0.054-0.176 0-0.121-0.113-0.258-0.211-0.408-0.288l-0.010-0.005c-0.129-0.069-0.241-0.149-0.339-0.243l0.001 0.001c-0.114-0.102-0.238-0.201-0.368-0.293l-0.013-0.008c-0.084-0.052-0.147-0.13-0.179-0.223l-0.001-0.003c-0.023-0.047-0.047-0.087-0.073-0.124l0.002 0.003h-0.138c-0.050-0.166-0.14-0.307-0.259-0.418l-0.001-0.001c-0.099-0.103-0.172-0.231-0.208-0.375l-0.001-0.006c-0.038-0.131-0.087-0.245-0.146-0.351l0.004 0.008c-0.012-0.023-0.021-0.050-0.025-0.078l-0-0.001c-0.022-0.099-0.035-0.212-0.035-0.328 0-0.023 0.001-0.046 0.001-0.068l-0 0.003c0.001-0.011 0.001-0.025 0.001-0.038 0-0.078-0.013-0.152-0.036-0.222l0.001 0.005c-0.012-0.028-0.019-0.061-0.019-0.096s0.007-0.068 0.020-0.098l-0.001 0.002c0.050-0.216 0.114-0.403 0.192-0.581l-0.008 0.021c0.009-0.027 0.018-0.060 0.024-0.095l0.001-0.006c0.086-0.282 0.191-0.526 0.319-0.755l-0.010 0.019c0.014-0.021 0.028-0.046 0.040-0.071l0.002-0.004c0.050-0.18 0.179-0.322 0.347-0.387l0.004-0.001c0.030-0.013 0.056-0.033 0.075-0.058l0-0 0.213-0.238c0.079-0.096 0.167-0.18 0.264-0.252l0.004-0.003c0.127-0.086 0.236-0.187 0.328-0.302l0.002-0.003c0.062-0.092 0.158-0.158 0.269-0.179l0.003-0c0.124-0.033 0.229-0.099 0.309-0.188l0.001-0.001c0.083-0.101 0.194-0.175 0.322-0.212l0.005-0.001c0.029-0.011 0.054-0.027 0.075-0.046l-0 0c0.073-0.059 0.165-0.098 0.266-0.104l0.001-0c0.085-0.002 0.161-0.040 0.213-0.1l0-0c0.098-0.133 0.253-0.218 0.429-0.218 0.005 0 0.010 0 0.015 0l-0.001-0 0.13-0.121c0.037 0.003 0.080 0.005 0.123 0.005s0.086-0.002 0.129-0.005l-0.006 0c0.117-0.015 0.221-0.035 0.321-0.062l-0.016 0.004c0.142-0.046 0.217-0.025 0.28 0.038 0.036 0.031 0.083 0.050 0.134 0.050 0.025 0 0.050-0.005 0.072-0.013l-0.001 0c0.015-0.009 0.033-0.015 0.052-0.015s0.037 0.005 0.053 0.015l-0-0c0.024 0.003 0.045 0.015 0.058 0.033l0 0c0.048-0.035 0.107-0.056 0.172-0.056 0.041 0 0.079 0.008 0.114 0.023l-0.002-0.001c0.025-0.035 0.047-0.075 0.065-0.117l0.002-0.004c0.033-0.063 0.033-0.167-0.121-0.284-0.048-0.035-0.104-0.071-0.162-0.104l-0.010-0.005c-0.080-0.043-0.174-0.068-0.275-0.068-0.051 0-0.1 0.006-0.148 0.019l0.004-0.001c-0.243 0.063-0.456 0.151-0.653 0.262l0.013-0.007c-0.019-0.005-0.040-0.008-0.063-0.008-0.074 0-0.142 0.032-0.188 0.083l-0 0c-0.043 0.031-0.093 0.054-0.148 0.066l-0.003 0.001c-0.109 0.014-0.208 0.045-0.298 0.090l0.005-0.002c-0.12 0.069-0.258 0.129-0.404 0.172l-0.014 0.003c-0.021 0.011-0.039 0.022-0.055 0.034l0.001-0.001c-0.18 0.1-0.347 0.213-0.518 0.318-0.169 0.101-0.313 0.203-0.45 0.315l0.007-0.005c-0.262 0.193-0.493 0.398-0.704 0.621l-0.002 0.002c-0.117 0.142-0.305 0.28-0.456 0.418-0.027 0.024-0.052 0.050-0.074 0.078l-0.001 0.001c-0.123 0.205-0.247 0.381-0.383 0.548l0.007-0.008c-0.039 0.044-0.069 0.097-0.087 0.156l-0.001 0.003c-0.041 0.113-0.092 0.211-0.153 0.301l0.003-0.005c-0.194 0.281-0.309 0.629-0.309 1.003 0 0.096 0.008 0.19 0.022 0.282l-0.001-0.010c0.038 0.15 0.033 0.334 0.075 0.498s0.050 0.217 0.084 0.322l0.125 0.309c0.063 0.091 0.122 0.196 0.171 0.305l0.005 0.012c0.019 0.050 0.049 0.092 0.087 0.125l0 0c0.129 0.091 0.23 0.212 0.295 0.354l0.002 0.005c0.065 0.088 0.141 0.163 0.227 0.224l0.003 0.002c0.066 0.038 0.122 0.084 0.171 0.137l0.001 0.001c0.17 0.18 0.361 0.337 0.569 0.469l0.012 0.007c0.146 0.096 0.293 0.188 0.418 0.301 0.138 0.085 0.298 0.164 0.465 0.227l0.020 0.007s0.029 0 0.042 0c0.063 0.021 0.138 0.039 0.215 0.049l0.007 0.001c0.053 0.018 0.114 0.032 0.177 0.037l0.003 0c0.178 0.003 0.349 0.024 0.514 0.062l-0.017-0.003c0.046 0.012 0.099 0.019 0.154 0.019 0.080 0 0.156-0.015 0.226-0.041l-0.004 0.001c0.016-0.002 0.035-0.004 0.054-0.004s0.038 0.001 0.056 0.004l-0.002-0c0.004 0 0.009 0 0.015 0 0.154 0 0.306-0.011 0.454-0.031l-0.017 0.002c0.204-0.012 0.39-0.079 0.547-0.186l-0.004 0.002c0.056-0.037 0.122-0.066 0.192-0.083l0.004-0.001c0.209-0.003 0.401-0.070 0.559-0.182l-0.003 0.002 0.255-0.134c0.177-0.080 0.328-0.185 0.456-0.314v0l0.054-0.038c0.2-0.090 0.371-0.205 0.519-0.344l-0.001 0.001c0.284-0.196 0.53-0.418 0.744-0.668l0.004-0.005c0.014-0.018 0.030-0.034 0.049-0.046l0.001-0c0.133-0.082 0.241-0.192 0.32-0.322l0.002-0.004c0.046-0.059 0.117-0.113 0.167-0.171 0.060-0.054 0.115-0.112 0.165-0.173l0.002-0.003c0.109-0.142 0.197-0.301 0.301-0.443 0.072-0.143 0.166-0.263 0.279-0.363l0.001-0.001c0.076-0.050 0.131-0.126 0.154-0.215l0.001-0.003c0.044-0.144 0.109-0.269 0.191-0.38l-0.002 0.003c0.070-0.116 0.141-0.254 0.201-0.396l0.008-0.022c0.059-0.138 0.125-0.276 0.176-0.418 0.025-0.067 0.059-0.125 0.084-0.188 0.020-0.044 0.033-0.095 0.038-0.149l0-0.002c0-0.042-0.029-0.063-0.042-0.088 0.107-0.128 0.172-0.294 0.172-0.476 0-0.009-0-0.018-0-0.027l0 0.001c-0.003-0.023-0.004-0.050-0.004-0.077s0.002-0.054 0.005-0.081l-0 0.003c0.032-0.164 0.050-0.353 0.050-0.546 0-0.001 0-0.001 0-0.002v0c0-0.054 0-0.109 0-0.159-0.014-0.055-0.025-0.119-0.029-0.185l-0-0.003c-0.011-0.433-0.076-0.846-0.188-1.239l0.009 0.035s0-0.025 0-0.042c-0.041-0.096-0.078-0.209-0.102-0.327l-0.002-0.012c-0.036-0.237-0.114-0.45-0.226-0.64l0.005 0.008-0.033-0.088c-0.078-0.187-0.17-0.348-0.277-0.496l0.005 0.007c-0.134-0.284-0.307-0.528-0.514-0.736l0 0c-0.028-0.027-0.049-0.061-0.062-0.099l-0.001-0.002c-0.074-0.135-0.174-0.247-0.294-0.332l-0.003-0.002c-0.067-0.044-0.126-0.090-0.181-0.139l0.001 0.001-0.314-0.288c-0.103-0.077-0.222-0.156-0.345-0.228l-0.019-0.010c-0.253-0.176-0.546-0.319-0.86-0.413l-0.022-0.006c-0.122-0.053-0.263-0.093-0.41-0.112l-0.008-0.001c-0.038-0.011-0.072-0.025-0.103-0.043l0.002 0.001c-0.119-0.053-0.257-0.089-0.401-0.1l-0.004-0c-0.217 0-0.418 0-0.652 0-0.030 0.002-0.065 0.003-0.1 0.003s-0.070-0.001-0.105-0.003l0.005 0c-0.266 0.007-0.52 0.029-0.769 0.067l0.034-0.004-0.18 0.025c-0.163 0.029-0.33 0.042-0.485 0.084l-0.581 0.205c-0.033 0-0.075 0-0.109 0.021-0.217 0.072-0.401 0.152-0.577 0.244l0.021-0.010c-0.158 0.089-0.341 0.16-0.535 0.202l-0.013 0.002c-0.038 0.134-0.205 0.184-0.343 0.242-0.17 0.052-0.313 0.151-0.417 0.283l-0.001 0.002c-0.080 0.029-0.149 0.064-0.213 0.107l0.003-0.002c-0.1 0.091-0.21 0.172-0.329 0.242l-0.009 0.005c-0.216 0.179-0.457 0.348-0.709 0.5l-0.027 0.015c-0.041 0.024-0.077 0.052-0.109 0.084l-0 0c-0.301 0.301-0.652 0.556-0.953 0.861-0.176 0.184-0.418 0.326-0.564 0.531-0.025 0.025-0.053 0.048-0.082 0.070l-0.002 0.001c-0.096 0.067-0.184 0.138-0.276 0.213-0.178 0.154-0.339 0.318-0.484 0.495l-0.006 0.007c-0.121 0.153-0.249 0.29-0.386 0.416l-0.003 0.002c-0.060 0.054-0.115 0.112-0.165 0.173l-0.002 0.003c-0.043 0.056-0.096 0.103-0.156 0.137l-0.003 0.001c-0.052 0.031-0.094 0.074-0.125 0.124l-0.001 0.002c-0.026 0.074-0.074 0.134-0.137 0.175l-0.001 0.001c-0.050 0.042-0.125 0.096-0.134 0.13-0.074 0.145-0.167 0.269-0.276 0.376l-0 0c-0.187 0.208-0.363 0.436-0.522 0.676l-0.013 0.022c-0.031 0.042-0.065 0.080-0.104 0.112l-0.001 0.001c-0.099 0.080-0.171 0.189-0.204 0.314l-0.001 0.004c-0.175 0.144-0.323 0.313-0.442 0.501l-0.005 0.009-0.1 0.138c-0.050 0.063-0.105 0.121-0.151 0.188l-0.276 0.418c-0.096 0.111-0.173 0.242-0.223 0.385l-0.003 0.008c-0.025 0.049-0.052 0.092-0.085 0.131l0.001-0.001c-0.151 0.203-0.302 0.435-0.438 0.677l-0.018 0.034c-0.053 0.119-0.125 0.22-0.213 0.305l-0 0c-0.022 0.105-0.052 0.197-0.091 0.285l0.004-0.009c-0.076 0.141-0.151 0.26-0.233 0.374l0.007-0.010c-0.025 0.046-0.059 0.088-0.079 0.134-0.084 0.171-0.138 0.355-0.238 0.523-0.016 0.022-0.026 0.049-0.029 0.079l-0 0.001c0 0.1-0.054 0.176-0.113 0.259-0.066 0.079-0.124 0.168-0.172 0.264l-0.004 0.008c-0.142 0.351-0.276 0.702-0.418 1.049 0 0.033-0.025 0.071-0.042 0.105-0.054 0.13-0.113 0.255-0.167 0.385-0.033 0.076-0.062 0.165-0.082 0.258l-0.002 0.010c-0.018 0.123-0.060 0.233-0.123 0.329l0.002-0.003c-0.024 0.037-0.045 0.080-0.061 0.125l-0.001 0.004c-0.029 0.088-0.054 0.176-0.096 0.305 0 0.006 0 0.014 0 0.022 0 0.055-0.009 0.108-0.027 0.157l0.001-0.003c-0.079 0.15-0.147 0.325-0.196 0.508l-0.004 0.018c-0.045 0.098-0.073 0.212-0.079 0.332l-0 0.002c-0.006 0.053-0.021 0.101-0.043 0.145l0.001-0.002c-0.086 0.201-0.159 0.436-0.206 0.68l-0.004 0.022c-0.009 0.065-0.022 0.123-0.040 0.179l0.002-0.007c-0.035 0.082-0.055 0.177-0.055 0.277 0 0.029 0.002 0.058 0.005 0.086l-0-0.003c0.003 0.018 0.005 0.039 0.005 0.061s-0.002 0.042-0.005 0.063l0-0.002c-0.090 0.255-0.15 0.55-0.167 0.857l-0 0.008c0 0.003 0 0.007 0 0.010 0 0.098-0.014 0.192-0.039 0.281l0.002-0.007c-0.035 0.109-0.058 0.235-0.063 0.365l-0 0.003c0 0.007 0 0.014 0 0.022 0 0.079-0.008 0.157-0.022 0.232l0.001-0.008c-0.054 0.181-0.085 0.388-0.085 0.603 0 0.072 0.003 0.143 0.010 0.213l-0.001-0.009c0.004 0.047 0.006 0.102 0.006 0.157s-0.002 0.11-0.007 0.164l0-0.007c-0.054 0.276-0.054 0.544-0.054 0.803-0.001 0.010-0.002 0.022-0.002 0.033s0.001 0.023 0.002 0.035l-0-0.001c-0 0.016-0.001 0.034-0.001 0.053 0 0.198 0.026 0.39 0.075 0.573l-0.004-0.015c0.004 0.012 0.006 0.027 0.006 0.042s-0.002 0.029-0.007 0.043l0-0.001c-0.004 0.025-0.006 0.055-0.006 0.085 0 0.070 0.011 0.137 0.032 0.2l-0.001-0.005c0.020 0.081 0.036 0.179 0.045 0.28l0.001 0.009c0.064 0.446 0.168 0.846 0.31 1.228l-0.013-0.041 0.033 0.084c0.274 0.533 0.595 0.992 0.97 1.401l-0.004-0.005c0.178 0.196 0.372 0.37 0.583 0.523l0.011 0.008c0.035 0.035 0.079 0.062 0.127 0.079l0.002 0.001c0.109 0.029 0.202 0.090 0.271 0.171l0.001 0.001c0.052 0.049 0.113 0.088 0.18 0.116l0.004 0.001 0.184 0.084c0.2 0.084 0.448 0.167 0.703 0.233l0.041 0.009c0.050 0.040 0.108 0.072 0.172 0.091l0.004 0.001c0.288 0.067 0.573 0.088 0.865 0.13 0.167 0 0.343 0 0.51 0.046 0.013 0.002 0.028 0.003 0.044 0.003s0.031-0.001 0.046-0.003l-0.002 0c0.052-0.011 0.112-0.017 0.173-0.017s0.121 0.006 0.179 0.018l-0.006-0.001c0.077 0.012 0.166 0.019 0.257 0.019s0.18-0.007 0.267-0.020l-0.010 0.001c0.238 0 0.472-0.059 0.711-0.092 0.117 0 0.242 0 0.351-0.038 0.163-0.049 0.374-0.098 0.59-0.137l0.037-0.006c0.282-0.052 0.521-0.113 0.754-0.188l-0.043 0.012h0.088c0.346-0.069 0.652-0.166 0.941-0.292l-0.030 0.012c0.042-0.017 0.091-0.032 0.142-0.041l0.005-0.001c0.183-0.022 0.348-0.086 0.489-0.182l-0.004 0.002c0.028-0.017 0.060-0.030 0.094-0.037l0.002-0c0.247-0.079 0.498-0.155 0.736-0.247s0.543-0.217 0.807-0.343 0.527-0.201 0.786-0.322l0.878-0.406c0.068-0.033 0.126-0.075 0.176-0.125l0-0c0.078-0.078 0.173-0.139 0.279-0.178l0.005-0.002c0.249-0.065 0.46-0.201 0.617-0.383l0.001-0.002 0.1 0.033c0.056-0.047 0.117-0.092 0.181-0.134l0.007-0.004c0.149-0.054 0.276-0.137 0.38-0.242l0-0c0.054-0.045 0.116-0.081 0.184-0.107l0.004-0.002c0.093-0.030 0.168-0.090 0.216-0.17l0.001-0.002c0.247-0.088 0.301-0.096 0.418-0.33 0.274-0.168 0.512-0.348 0.73-0.55l-0.003 0.003c0.124-0.047 0.226-0.13 0.295-0.236l0.001-0.002c0.019-0.032 0.044-0.059 0.074-0.079l0.001-0.001c0.101-0.065 0.186-0.142 0.258-0.232l0.002-0.002c0.083-0.091 0.171-0.174 0.263-0.252l0.004-0.003c-0.1-0.071-0.197-0.046-0.33 0.092-0.063 0.063-0.142 0.167-0.18 0.171-0.101 0.037-0.185 0.097-0.25 0.175l-0.001 0.001c-0.134 0.117-0.263 0.242-0.418 0.355s-0.167 0.146-0.263 0.23c0 0 0 0.038 0 0.063-0.121 0.054-0.209 0.038-0.297 0.155s-0.025 0.146 0 0.242c-0.065-0.005-0.125-0.015-0.183-0.031l0.007 0.002c-0.096-0.042-0.096-0.046-0.234 0.059-0.085 0.080-0.176 0.155-0.272 0.224l-0.008 0.006c-0.15 0.084-0.263 0.188-0.397 0.276-0.033 0.025-0.070 0.048-0.109 0.065l-0.004 0.001c-0.145 0.045-0.272 0.111-0.384 0.195l0.003-0.002-0.556 0.305c-0.046 0-0.084 0.079-0.117 0.092-0.155 0.050-0.272 0.176-0.439 0.209-0.169 0.045-0.317 0.117-0.447 0.212l0.004-0.003c-0.102 0.067-0.22 0.124-0.344 0.168l-0.012 0.003c-0.14 0.071-0.306 0.137-0.478 0.19l-0.023 0.006c-0.172 0.032-0.322 0.108-0.444 0.214l0.001-0.001c-0.077 0.067-0.172 0.116-0.276 0.141l-0.005 0.001-0.36 0.088c-0.096 0.025-0.163 0.063-0.15 0.125s0 0.029 0 0.025c-0.097 0.004-0.189 0.016-0.278 0.035l0.010-0.002-0.836 0.263h-0.038c-0.148 0.097-0.327 0.159-0.519 0.171l-0.003 0c-0.205 0.029-0.376 0.121-0.569 0.159-0.028 0.005-0.053 0.018-0.071 0.038l-0 0c-0.067 0.054-0.153 0.088-0.247 0.088h-0l-0.213 0.038c-0.206 0.013-0.398 0.050-0.581 0.109l0.017-0.005s-0.029 0-0.042 0c-0.092 0-0.184 0-0.276 0.029s-0.272 0.059-0.418 0.071c-0 0-0.001 0-0.001 0-0.179 0-0.353 0.018-0.521 0.053l0.017-0.003c-0.016 0.004-0.035 0.006-0.054 0.006s-0.038-0.002-0.056-0.007l0.002 0c-0.054-0.006-0.118-0.010-0.182-0.010-0.152 0-0.3 0.020-0.44 0.059l0.012-0.003-0.284-0.038c-0.067-0.001-0.133-0.007-0.196-0.018l0.008 0.001c-0.202-0.053-0.447-0.097-0.697-0.123l-0.022-0.002-0.297-0.050c-0.234-0.046-0.46-0.151-0.698-0.188-0.067-0.008-0.128-0.027-0.183-0.056l0.003 0.001c-0.13-0.108-0.277-0.206-0.434-0.286l-0.014-0.006c-0.234-0.118-0.434-0.266-0.606-0.443l-0.001-0c-0.024-0.023-0.050-0.043-0.077-0.061l-0.002-0.001c-0.227-0.102-0.402-0.286-0.491-0.512l-0.002-0.006-0.209-0.13c-0.024-0.17-0.081-0.322-0.166-0.456l0.003 0.005c-0.030-0.059-0.071-0.108-0.12-0.146l-0.001-0.001c-0.057-0.064-0.106-0.137-0.144-0.216l-0.002-0.006c-0.034-0.091-0.064-0.2-0.086-0.313l-0.002-0.013c-0.014-0.055-0.035-0.104-0.064-0.148l0.001 0.002c-0.069-0.080-0.114-0.182-0.125-0.295l-0-0.002c0-0.067-0.046-0.138-0.063-0.209s-0.033-0.117-0.046-0.18c-0.059-0.368-0.029-0.732-0.084-1.104-0.004-0.016-0.006-0.034-0.006-0.052s0.002-0.037 0.007-0.054l-0 0.002c0.014-0.037 0.022-0.079 0.022-0.123s-0.008-0.087-0.023-0.126l0.001 0.002c-0.004-0.019-0.006-0.042-0.006-0.065s0.002-0.045 0.007-0.067l-0 0.002c0.013-0.041 0.020-0.088 0.020-0.137 0-0.105-0.034-0.203-0.092-0.282l0.001 0.001c0.042-0.054 0.067-0.122 0.067-0.196 0-0.025-0.003-0.050-0.008-0.074l0 0.002c-0.002-0.012-0.004-0.026-0.004-0.040s0.001-0.028 0.004-0.041l-0 0.001c0.037-0.118 0.059-0.254 0.059-0.395 0-0.093-0.009-0.183-0.027-0.27l0.001 0.009c-0.010-0.031-0.016-0.067-0.016-0.105s0.006-0.073 0.016-0.107l-0.001 0.003c0.015-0.036 0.023-0.078 0.023-0.121s-0.009-0.085-0.024-0.123l0.001 0.002c-0.002-0.008-0.003-0.016-0.003-0.025s0.001-0.018 0.003-0.026l-0 0.001 0.071-0.071c0-0.121 0.029-0.217 0.046-0.318l0.059-0.205v-0.125l0.071-0.293c0.003-0.092 0.014-0.18 0.031-0.265l-0.002 0.010c0.066-0.168 0.105-0.362 0.105-0.565 0-0.041-0.002-0.082-0.005-0.122l0 0.005s0 0 0-0.025 0.1 0 0.105-0.138c-0.001-0.083-0.008-0.164-0.022-0.243l0.001 0.009c0.062-0.077 0.1-0.175 0.1-0.283 0-0.020-0.001-0.039-0.004-0.058l0 0.002c0.001-0.052 0.015-0.101 0.038-0.144l-0.001 0.002c0.045-0.090 0.089-0.165 0.138-0.237l-0.004 0.007c0.073-0.096 0.117-0.218 0.117-0.35 0-0.008-0-0.015-0-0.023l0 0.001c-0.003-0.015-0.004-0.033-0.004-0.051 0-0.091 0.037-0.173 0.096-0.233l-0 0c0.014-0.016 0.026-0.034 0.037-0.053l0.001-0.002c0.013-0.194 0.057-0.375 0.129-0.541l-0.004 0.010c0.034-0.070 0.055-0.152 0.055-0.239 0-0.006-0-0.011-0-0.017l0 0.001c-0.001-0.008-0.002-0.018-0.002-0.027s0.001-0.019 0.002-0.028l-0 0.001 0.088-0.075c0.006-0.050 0.017-0.096 0.031-0.139l-0.002 0.005c0.099-0.138 0.168-0.303 0.196-0.483l0.001-0.006c0.028-0.116 0.073-0.218 0.132-0.309l-0.002 0.004c0.048-0.077 0.088-0.166 0.115-0.26l0.002-0.007c0.059-0.176 0.184-0.314 0.226-0.493l0.025-0.029c0.118-0.152 0.194-0.342 0.205-0.549l0-0.002c-0-0.002-0-0.005-0-0.008 0-0.033 0.009-0.063 0.026-0.089l-0 0.001c0.042-0.067 0.068-0.147 0.071-0.233l0-0.001c0.011-0.055 0.034-0.103 0.067-0.143l-0 0.001c0.084-0.050 0.054-0.134 0.067-0.155l0.33-0.351c0.084-0.266 0.219-0.495 0.394-0.687l-0.001 0.001c-0.054-0.038-0.163 0.029-0.117-0.134l0.134-0.033 0.255-0.318c0-0.054 0-0.134 0.038-0.213 0.187-0.167 0.33-0.378 0.415-0.617l0.003-0.010c0.139-0.078 0.245-0.2 0.3-0.347l0.002-0.005 0.063-0.155 0.125-0.263c0.038-0.019 0.070-0.037 0.1-0.057l-0.004 0.002c0.046-0.029 0.086-0.062 0.121-0.1l0-0c0.155-0.182 0.276-0.398 0.348-0.635l0.003-0.013c0.093-0.018 0.17-0.077 0.212-0.157l0.001-0.002c0.052-0.093 0.128-0.167 0.219-0.216l0.003-0.001c0.046-0.032 0.085-0.071 0.116-0.116l0.001-0.002c0.113-0.163 0.226-0.326 0.347-0.481 0.011-0.019 0.024-0.035 0.038-0.050l-0 0c0.18-0.137 0.335-0.296 0.464-0.474l0.005-0.007c0.010-0.014 0.019-0.031 0.025-0.049l0-0.001h-0.113c0.026-0.060 0.073-0.106 0.132-0.129l0.002-0.001c0.162-0.077 0.295-0.192 0.391-0.335l0.002-0.003c0.059-0.112 0.144-0.203 0.248-0.266l0.003-0.002 0.071-0.167c0.13-0.037 0.236-0.119 0.304-0.228l0.001-0.002c0.019-0.019 0.041-0.035 0.066-0.045l0.001-0.001c0.143-0.059 0.252-0.175 0.3-0.318l0.001-0.004c0.048-0.109 0.124-0.199 0.219-0.262l0.002-0.001h0.042c0.096 0.038 0.105 0.029 0.213-0.1 0.058-0.067 0.117-0.129 0.179-0.187l0.001-0.001c0.072-0.060 0.135-0.126 0.19-0.198l0.002-0.003c0.071-0.083 0.15-0.154 0.238-0.215l0.004-0.003c0.047-0.024 0.102-0.042 0.16-0.050l0.003-0 0.343-0.372c0.074-0.085 0.166-0.152 0.271-0.195l0.005-0.002c0.047-0.014 0.088-0.039 0.121-0.071l-0 0c0.192-0.202 0.414-0.373 0.659-0.507l0.014-0.007c0.073-0.035 0.133-0.088 0.175-0.153l0.001-0.002c0.037-0.058 0.096-0.1 0.166-0.113l0.002-0c0.079 0 0.125-0.063 0.188-0.117 0.114-0.113 0.254-0.201 0.411-0.253l0.008-0.002c0.102-0.026 0.191-0.063 0.273-0.111l-0.005 0.003c0.218-0.111 0.406-0.231 0.58-0.369l-0.007 0.005c0.090-0.004 0.174-0.021 0.253-0.048l-0.007 0.002c0.099-0.061 0.219-0.097 0.348-0.097 0.011 0 0.023 0 0.034 0.001l-0.002-0c0.013 0.003 0.027 0.004 0.042 0.004s0.029-0.001 0.043-0.004l-0.001 0 0.418-0.159c0.050-0.016 0.107-0.025 0.166-0.025 0.001 0 0.001 0 0.002 0h-0c0.011 0.001 0.025 0.001 0.038 0.001 0.128 0 0.249-0.031 0.355-0.087l-0.004 0.002c0.048-0.024 0.105-0.038 0.165-0.038 0.005 0 0.011 0 0.016 0l-0.001-0c0.041 0.003 0.089 0.005 0.137 0.005 0.188 0 0.37-0.028 0.541-0.080l-0.013 0.003c0.017-0.001 0.038-0.001 0.058-0.001 0.109 0 0.217 0.009 0.321 0.028l-0.011-0.002z"></path>
<path d="M6.551 26.728c-0.031 0.002-0.068 0.003-0.105 0.003s-0.073-0.001-0.11-0.003l0.005 0c-0.042-0.009-0.090-0.014-0.14-0.014s-0.098 0.005-0.145 0.014l0.005-0.001c-0.025 0.005-0.054 0.007-0.084 0.007s-0.058-0.003-0.087-0.008l0.003 0c-0.081-0.015-0.175-0.024-0.27-0.025l-0.001-0c-0.033 0.002-0.072 0.003-0.111 0.003s-0.078-0.001-0.116-0.003l0.005 0-0.28-0.038c-0.197-0.025-0.397-0.050-0.598-0.096-0.070-0.018-0.132-0.048-0.185-0.089l0.001 0.001h-0.021c-0.297-0.078-0.543-0.161-0.782-0.258l0.042 0.015-0.067-0.029-0.134-0.063h-0.033c-0.084-0.056-0.151-0.133-0.195-0.222l-0.001-0.003c-0.048-0.057-0.112-0.1-0.185-0.121l-0.003-0.001c-0.070-0.020-0.13-0.053-0.18-0.097l0.001 0c-0.232-0.171-0.436-0.355-0.62-0.557l-0.003-0.003c-0.381-0.415-0.711-0.887-0.974-1.398l-0.017-0.036c0-0.033-0.029-0.067-0.038-0.096-0.128-0.345-0.231-0.75-0.289-1.169l-0.004-0.031v-0.042c0-0.079-0.021-0.159-0.038-0.234-0.023-0.069-0.036-0.148-0.036-0.231 0-0.045 0.004-0.090 0.012-0.133l-0.001 0.005c-0.052-0.135-0.085-0.29-0.092-0.453l-0-0.003c0-0.054 0-0.109 0-0.159-0.002-0.016-0.003-0.034-0.003-0.052s0.001-0.037 0.003-0.054l-0 0.002c0-0.125 0-0.259 0-0.393s0-0.259 0-0.389v-0.079c0.003-0.031 0.005-0.066 0.005-0.102s-0.002-0.072-0.005-0.107l0 0.005c-0.006-0.064-0.010-0.139-0.010-0.214 0-0.23 0.032-0.453 0.093-0.664l-0.004 0.017c0.004-0.031 0.007-0.066 0.007-0.102s-0.002-0.072-0.007-0.106l0 0.004c0.007-0.152 0.034-0.294 0.078-0.429l-0.003 0.011c0.015-0.070 0.024-0.15 0.025-0.233v-0.001c0.016-0.336 0.081-0.651 0.187-0.947l-0.007 0.023c0.001-0.009 0.001-0.019 0.001-0.029s-0-0.020-0.001-0.031l0 0.001c-0.002-0.024-0.004-0.053-0.004-0.081 0-0.121 0.024-0.237 0.069-0.343l-0.002 0.006c0-0.008 0.001-0.018 0.001-0.027s-0-0.019-0.001-0.029l0 0.001c-0.001-0.014-0.002-0.030-0.002-0.046s0.001-0.032 0.002-0.048l-0 0.002 0.029-0.121c0.048-0.238 0.118-0.448 0.208-0.646l-0.008 0.018c0.046-0.023 0.085-0.054 0.117-0.091l0-0.001c0-0.118 0.025-0.23 0.069-0.332l-0.002 0.005 0.021-0.054 0.038-0.125c0.035-0.158 0.088-0.298 0.159-0.426l-0.004 0.008v-0.113l0.1-0.334c0.023-0.063 0.048-0.117 0.078-0.168l-0.003 0.005c0.052-0.076 0.089-0.166 0.104-0.264l0-0.004c0.016-0.091 0.044-0.172 0.082-0.248l-0.002 0.005v-0.046c0.033-0.084 0.071-0.163 0.105-0.242l0.096-0.176c0.009-0.028 0.019-0.051 0.031-0.074l-0.001 0.003c0.109-0.242 0.209-0.489 0.309-0.74l0.121-0.301c0.041-0.091 0.090-0.169 0.148-0.24l-0.002 0.002 0.075-0.105c0.042-0.054 0.063-0.088 0.059-0.109-0-0.002-0-0.005-0-0.008 0-0.065 0.019-0.126 0.051-0.178l-0.001 0.001c0.052-0.097 0.1-0.21 0.138-0.328l0.004-0.015c0.029-0.067 0.054-0.134 0.088-0.201 0.018-0.038 0.038-0.071 0.060-0.102l-0.001 0.002 0.025-0.042c0.033-0.054 0.063-0.1 0.096-0.146 0.044-0.059 0.084-0.127 0.118-0.198l0.003-0.007c0.034-0.070 0.061-0.151 0.078-0.236l0.001-0.007v-0.054l0.042-0.033c0.075-0.065 0.137-0.141 0.186-0.226l0.002-0.004c0.127-0.229 0.25-0.422 0.384-0.606l-0.012 0.017 0.121-0.171 0.033-0.050c0.050-0.149 0.122-0.279 0.215-0.391l-0.002 0.002 0.033-0.046 0.276-0.418c0.032-0.047 0.064-0.088 0.098-0.127l-0.002 0.002c0.020-0.021 0.039-0.045 0.057-0.069l0.002-0.002 0.1-0.134 0.096-0.13c0.094-0.148 0.206-0.273 0.336-0.378l0.003-0.002c0.051-0.135 0.131-0.248 0.233-0.338l0.001-0.001 0.038-0.033 0.038-0.042c0.113-0.188 0.234-0.351 0.37-0.5l-0.002 0.003 0.18-0.222c0.033-0.043 0.066-0.081 0.101-0.117l-0 0c0.064-0.057 0.114-0.127 0.149-0.205l0.002-0.004c0.030-0.073 0.081-0.131 0.145-0.171l0.002-0.001 0.033-0.029c0.071-0.059 0.084-0.071 0.088-0.096 0.044-0.094 0.113-0.17 0.198-0.22l0.002-0.001c0.046-0.026 0.084-0.061 0.112-0.103l0.001-0.001c0.050-0.060 0.103-0.113 0.161-0.161l0.002-0.002c0.134-0.127 0.256-0.264 0.366-0.41l0.006-0.008 0.025-0.029c0.156-0.191 0.323-0.36 0.504-0.514l0.006-0.005c0.092-0.079 0.184-0.151 0.284-0.226l0.059-0.042c0.103-0.121 0.214-0.229 0.334-0.327l0.005-0.004c0.084-0.068 0.159-0.136 0.23-0.209l0-0c0.155-0.155 0.322-0.301 0.489-0.443s0.318-0.272 0.468-0.418c0.041-0.053 0.087-0.1 0.136-0.141l0.001-0.001c0.273-0.162 0.508-0.327 0.729-0.509l-0.010 0.008 0.109-0.071c0.081-0.046 0.151-0.099 0.214-0.159l-0 0c0.048-0.047 0.107-0.084 0.173-0.104l0.003-0.001h0.063c0.119-0.141 0.275-0.247 0.453-0.303l0.007-0.002h0.054c0.084-0.033 0.184-0.075 0.197-0.117l0.025-0.096h0.096c0.189-0.041 0.357-0.106 0.511-0.193l-0.009 0.005c0.157-0.082 0.348-0.164 0.545-0.233l0.032-0.010c0.013-0.001 0.028-0.002 0.044-0.002s0.031 0.001 0.046 0.002l-0.002-0 0.598-0.205c0.089-0.043 0.198-0.087 0.311-0.124l0.019-0.005 0.163-0.025 0.184-0.025c0.146-0.030 0.315-0.048 0.488-0.050h0.002q0.125 0 0.251 0h0.268c0.205 0 0.418 0 0.61 0v0c0.119 0.007 0.231 0.035 0.332 0.082l-0.006-0.002 0.096 0.033 0.067 0.033c0.148 0.017 0.282 0.051 0.409 0.1l-0.011-0.004 0.075 0.013c0.35 0.097 0.656 0.24 0.931 0.425l-0.011-0.007 0.050 0.025c0.109 0.067 0.217 0.13 0.318 0.205l0.326 0.301c0.047 0.040 0.099 0.079 0.153 0.114l0.006 0.003c0.142 0.103 0.259 0.233 0.344 0.383l0.003 0.006c0.010 0.021 0.021 0.039 0.034 0.055l-0.001-0.001c0.176 0.145 0.317 0.325 0.414 0.53l0.004 0.009c0.042 0.079 0.084 0.155 0.13 0.226 0.090 0.142 0.166 0.305 0.222 0.478l0.004 0.015 0.1 0.234c0.099 0.174 0.168 0.378 0.192 0.595l0.001 0.007c0.017 0.076 0.039 0.141 0.066 0.204l-0.003-0.007 0.038 0.105c0.002 0.009 0.003 0.020 0.003 0.031s-0.001 0.022-0.003 0.032l0-0.001 0.046 0.192c0.086 0.313 0.137 0.673 0.138 1.044v0.001c-0.002 0.014-0.003 0.030-0.003 0.046s0.001 0.032 0.003 0.048l-0-0.002 0.021 0.13c0.001 0.017 0.002 0.037 0.002 0.056s-0.001 0.040-0.002 0.059l0-0.003c0 0.009 0 0.019 0 0.030 0 0.183-0.017 0.362-0.049 0.536l0.003-0.018c-0.002 0.022-0.003 0.047-0.003 0.073s0.001 0.051 0.003 0.076l-0-0.003c0.002 0.019 0.003 0.041 0.003 0.064 0 0.17-0.054 0.328-0.146 0.457l0.002-0.002c0.001 0.012 0.002 0.026 0.002 0.040s-0.001 0.028-0.002 0.041l0-0.002c-0.005 0.077-0.023 0.148-0.052 0.213l0.002-0.004c0 0.038-0.033 0.079-0.050 0.117-0.011 0.021-0.023 0.045-0.032 0.071l-0.001 0.004c-0.050 0.13-0.109 0.259-0.167 0.389-0.076 0.177-0.152 0.324-0.236 0.465l0.010-0.018c-0.074 0.097-0.133 0.209-0.173 0.331l-0.002 0.008c-0.036 0.128-0.115 0.234-0.22 0.304l-0.002 0.001c-0.069 0.064-0.128 0.139-0.173 0.221l-0.002 0.005-0.054 0.092c-0.049 0.063-0.098 0.134-0.141 0.208l-0.005 0.009c-0.054 0.079-0.105 0.159-0.163 0.234s-0.079 0.092-0.121 0.138l-0.054 0.054-0.079 0.075c-0.029 0.026-0.055 0.053-0.078 0.082l-0.001 0.001-0.038 0.046c-0.086 0.136-0.202 0.246-0.338 0.324l-0.005 0.002c-0.176 0.224-0.378 0.416-0.606 0.575l-0.009 0.006-0.151 0.121c-0.161 0.147-0.347 0.269-0.551 0.359l-0.013 0.005c-0.135 0.138-0.294 0.251-0.471 0.334l-0.010 0.004-0.255 0.13c-0.18 0.123-0.402 0.197-0.642 0.197-0.001 0-0.002 0-0.002 0h0s-0.063 0.038-0.088 0.054c-0.147 0.109-0.327 0.182-0.523 0.2l-0.004 0h-0.079c-0.144 0.020-0.31 0.033-0.48 0.033h-0.055c-0.082 0.032-0.176 0.050-0.275 0.050-0.064 0-0.126-0.008-0.186-0.022l0.005 0.001c-0.065-0.007-0.124-0.017-0.181-0.031l0.009 0.002c-0.068-0.017-0.146-0.027-0.226-0.027-0.021 0-0.041 0.001-0.061 0.002l0.003-0c-0.061-0.003-0.118-0.012-0.173-0.026l0.006 0.001h-0.059c-0.092-0.014-0.172-0.033-0.25-0.058l0.012 0.003c-0.010 0.003-0.021 0.005-0.033 0.005s-0.023-0.002-0.034-0.005l0.001 0-0.125-0.054c-0.144-0.056-0.268-0.121-0.384-0.197l0.007 0.005c-0.13-0.1-0.255-0.184-0.38-0.263l-0.054-0.038c-0.229-0.141-0.426-0.302-0.601-0.484l-0.001-0.001c-0.027-0.051-0.058-0.095-0.093-0.135l0.001 0.001c-0.103-0.072-0.19-0.158-0.261-0.256l-0.002-0.003-0.059-0.088c-0.042-0.095-0.108-0.173-0.19-0.229l-0.002-0.001c-0.072-0.054-0.128-0.126-0.162-0.21l-0.001-0.003c-0.020-0.061-0.047-0.113-0.081-0.161l0.001 0.002c-0.031-0.041-0.060-0.088-0.085-0.137l-0.003-0.006-0.13-0.318c-0.025-0.079-0.042-0.15-0.059-0.222s0-0.079-0.029-0.121c-0.020-0.080-0.036-0.177-0.045-0.276l-0.001-0.009c-0.008-0.081-0.020-0.154-0.036-0.225l0.002 0.012c-0.017-0.096-0.027-0.207-0.027-0.321 0-0.405 0.124-0.78 0.336-1.091l-0.004 0.007 0.046-0.075c0.035-0.052 0.065-0.111 0.086-0.175l0.001-0.005c0.026-0.084 0.066-0.156 0.118-0.218l-0.001 0.001c0.084-0.096 0.162-0.203 0.232-0.315l0.006-0.011c0.047-0.078 0.091-0.144 0.138-0.207l-0.004 0.006c0.020-0.030 0.042-0.056 0.067-0.079l0-0c0.084-0.084 0.15-0.142 0.217-0.201 0.092-0.078 0.175-0.157 0.253-0.241l0.002-0.002c0.138-0.157 0.292-0.295 0.46-0.413l0.008-0.005c0.094-0.067 0.176-0.133 0.254-0.203l-0.003 0.002c0.089-0.082 0.189-0.156 0.297-0.217l0.008-0.004 0.15-0.096 0.159-0.1c0.125-0.079 0.247-0.159 0.372-0.226 0.028-0.024 0.062-0.043 0.098-0.054l0.002-0c0.087-0.020 0.164-0.052 0.234-0.094l-0.004 0.002 0.155-0.071 0.075-0.029c0.080-0.042 0.175-0.068 0.275-0.071l0.001-0s0.038-0.025 0.054-0.038c0.075-0.071 0.176-0.115 0.288-0.115 0.014 0 0.027 0.001 0.040 0.002l-0.002-0c0.179-0.1 0.386-0.185 0.604-0.242l0.019-0.004c0.055-0.015 0.118-0.023 0.183-0.023 0.129 0 0.251 0.033 0.356 0.092l-0.004-0.002 0.063 0.033c0.051 0.028 0.095 0.057 0.136 0.090l-0.002-0.002c0.276 0.213 0.197 0.418 0.163 0.481-0.021 0.056-0.048 0.104-0.081 0.148l0.001-0.002-0.063 0.079-0.1-0.025c-0.1-0.025-0.121 0-0.155 0l-0.117 0.088-0.071-0.096c-0.038 0.014-0.083 0.023-0.129 0.023-0.089 0-0.171-0.031-0.236-0.082l0.001 0.001c-0.029-0.029-0.046-0.042-0.138 0-0.098 0.033-0.212 0.057-0.329 0.067l-0.005 0c-0.027 0.002-0.058 0.004-0.090 0.004s-0.063-0.001-0.094-0.004l0.004 0h-0.029l-0.079 0.071-0.046 0.046h-0.084c-0.006-0-0.013-0.001-0.019-0.001-0.123 0-0.231 0.063-0.293 0.158l-0.001 0.001c-0.079 0.094-0.195 0.154-0.325 0.159l-0.001 0c-0.069 0.005-0.131 0.031-0.18 0.072l0.001-0c-0.041 0.037-0.092 0.065-0.148 0.079l-0.002 0.001c-0.081 0.025-0.149 0.072-0.2 0.133l-0.001 0.001-0.046 0.042c-0.101 0.111-0.233 0.191-0.384 0.225l-0.005 0.001c-0.073 0.014-0.134 0.057-0.171 0.116l-0.001 0.001c-0.103 0.131-0.221 0.243-0.354 0.335l-0.005 0.003c-0.090 0.069-0.17 0.145-0.241 0.228l-0.002 0.002-0.217 0.242c-0.038 0.047-0.087 0.083-0.144 0.104l-0.002 0.001c-0.123 0.052-0.214 0.157-0.246 0.286l-0.001 0.003c-0.013 0.032-0.029 0.059-0.047 0.085l0.001-0.001c-0.118 0.203-0.221 0.439-0.298 0.686l-0.007 0.025c-0.009 0.044-0.021 0.082-0.035 0.118l0.002-0.005c-0.056 0.117-0.109 0.255-0.15 0.399l-0.005 0.019-0.025 0.079c0 0.050 0 0.067 0 0.075 0.030 0.061 0.047 0.134 0.047 0.21 0 0.013-0.001 0.026-0.001 0.038l0-0.002v0.067c-0.001 0.017-0.001 0.037-0.001 0.058 0 0.108 0.011 0.214 0.032 0.316l-0.002-0.010c-0.001 0.007-0.001 0.015-0.001 0.023s0 0.016 0.001 0.024l-0-0.001c0.061 0.108 0.113 0.233 0.152 0.364l0.003 0.013c0.031 0.125 0.092 0.232 0.176 0.318l-0-0c0.105 0.104 0.192 0.225 0.256 0.36l0.003 0.008h0.113l0.075 0.134c0.022 0.029 0.040 0.062 0.053 0.098l0.001 0.003c0.021 0.062 0.064 0.112 0.12 0.142l0.001 0.001c0.119 0.085 0.223 0.167 0.322 0.254l-0.004-0.004 0.071 0.063c0.089 0.082 0.189 0.155 0.297 0.214l0.008 0.004c0.138 0.066 0.256 0.147 0.361 0.243l-0.001-0.001 0.071 0.059 0.025-0.042 0.121 0.050c0.052 0.023 0.114 0.044 0.178 0.057l0.006 0.001c0.156 0.006 0.294 0.077 0.388 0.187l0.001 0.001c0.056-0.023 0.122-0.036 0.19-0.036s0.134 0.013 0.194 0.037l-0.003-0.001c0.105 0.025 0.18 0.042 0.234 0 0.039-0.026 0.087-0.042 0.139-0.042 0.016 0 0.032 0.002 0.047 0.004l-0.002-0c0.016 0.002 0.034 0.003 0.052 0.003 0.070 0 0.137-0.013 0.198-0.037l-0.004 0.001c0.091-0.034 0.197-0.054 0.307-0.054 0.002 0 0.005 0 0.007 0h-0c0.089-0.039 0.194-0.070 0.302-0.087l0.007-0.001c0.12-0.018 0.229-0.055 0.327-0.107l-0.005 0.003c0.105-0.060 0.23-0.118 0.358-0.166l0.018-0.006 0.226-0.092c0.049-0.022 0.106-0.036 0.167-0.038h0.001l0.305-0.159c0.063-0.124 0.175-0.216 0.31-0.25l0.003-0.001c0.041-0.015 0.076-0.038 0.105-0.067l0-0c0.063-0.073 0.133-0.136 0.21-0.19l0.004-0.002 0.088-0.067c0.059-0.050 0.121-0.096 0.184-0.142 0.126-0.087 0.236-0.185 0.333-0.295l0.002-0.002c0.057-0.060 0.123-0.111 0.197-0.149l0.004-0.002c0.028-0.011 0.051-0.030 0.067-0.054l0-0.001c0.095-0.188 0.226-0.345 0.386-0.466l0.003-0.002c0.071-0.051 0.129-0.113 0.174-0.185l0.002-0.003c0.038-0.066 0.082-0.122 0.134-0.171l0-0 0.084-0.088c0.032-0.132 0.114-0.241 0.224-0.308l0.002-0.001c0.035-0.127 0.091-0.237 0.165-0.332l-0.002 0.002c0.026-0.033 0.051-0.070 0.073-0.109l0.002-0.004c0.036-0.066 0.072-0.122 0.112-0.175l-0.003 0.004c0.029-0.046 0.063-0.088 0.088-0.13s0-0.042 0-0.046c0.034-0.216 0.122-0.408 0.248-0.567l-0.002 0.002c0.038-0.055 0.064-0.122 0.071-0.195l0-0.002c0.014-0.081 0.030-0.148 0.049-0.215l-0.003 0.014 0.025-0.084c0-0.042 0-0.084 0.025-0.121s0-0.071 0-0.105 0.029-0.084 0.046-0.134 0.021-0.054 0.033-0.084l0.029-0.088c-0.006-0.040-0.009-0.085-0.009-0.132s0.003-0.092 0.010-0.137l-0.001 0.005c0.008-0.069 0.012-0.149 0.012-0.23s-0.004-0.161-0.013-0.24l0.001 0.010c0-0.146-0.042-0.309-0.071-0.468-0.009-0.055-0.014-0.118-0.014-0.182s0.005-0.127 0.015-0.189l-0.001 0.007c0-0.155 0-0.155-0.063-0.238l-0.038-0.033v-0.054c-0.002-0.024-0.003-0.053-0.003-0.082s0.001-0.057 0.003-0.085l-0 0.004c-0.001-0.093-0.027-0.179-0.072-0.253l0.001 0.002c-0.040-0.058-0.064-0.129-0.064-0.207 0-0.023 0.002-0.046 0.006-0.067l-0 0.002c-0.050-0.053-0.081-0.125-0.081-0.204 0-0.011 0.001-0.021 0.002-0.032l-0 0.001c-0.069-0.066-0.119-0.151-0.141-0.247l-0.001-0.003-0.109-0.372c-0.019-0.042-0.038-0.078-0.060-0.112l0.002 0.003c-0.035-0.037-0.066-0.078-0.094-0.122l-0.002-0.003-0.188-0.213c-0.053-0.054-0.086-0.127-0.086-0.209 0-0.013 0.001-0.026 0.003-0.039l-0 0.002h-0.054l-0.004-0.033c-0.079-0.086-0.143-0.187-0.186-0.299l-0.002-0.006-0.025 0.042-0.159-0.23c-0.105-0.151-0.176-0.247-0.293-0.251h-0.1l-0.038-0.092-0.079-0.054-0.092-0.059c-0.049-0.052-0.111-0.091-0.181-0.112l-0.003-0.001c-0.067-0.024-0.125-0.061-0.171-0.109l-0-0-0.063-0.046c-0.069-0.047-0.147-0.087-0.231-0.115l-0.007-0.002-0.084-0.038c-0.055-0.015-0.099-0.031-0.142-0.049l0.009 0.003c-0.084-0.035-0.182-0.064-0.284-0.082l-0.009-0.001c-0.043-0.008-0.081-0.024-0.114-0.047l0.001 0.001-0.071-0.033c-0.067-0.025-0.13-0.054-0.201-0.075-0.052-0.014-0.112-0.022-0.173-0.022-0.013 0-0.025 0-0.038 0.001l0.002-0c-0.046 0.010-0.1 0.015-0.154 0.015-0.114 0-0.222-0.024-0.319-0.067l0.005 0.002h-0.075c-0.071-0.014-0.153-0.021-0.237-0.021-0.012 0-0.024 0-0.036 0l0.002-0c-0.152 0.049-0.327 0.078-0.509 0.078-0.033 0-0.065-0.001-0.098-0.003l0.005 0h-0.092c-0.015-0.003-0.032-0.005-0.050-0.005s-0.035 0.002-0.052 0.005l0.002-0c-0.128 0.069-0.281 0.109-0.443 0.109-0.009 0-0.018-0-0.027-0l0.001 0c-0.016-0.003-0.035-0.004-0.054-0.004s-0.038 0.001-0.056 0.004l0.002-0-0.418 0.159c-0.040 0.019-0.088 0.030-0.138 0.030-0.009 0-0.018-0-0.026-0.001l0.001 0c-0.001 0-0.002 0-0.004 0-0.104 0-0.201 0.030-0.283 0.081l0.002-0.001c-0.062 0.030-0.135 0.048-0.213 0.050h-0.034c-0.099 0.085-0.212 0.159-0.334 0.218l-0.009 0.004c-0.086 0.044-0.157 0.085-0.226 0.131l0.008-0.005c-0.089 0.054-0.192 0.098-0.301 0.128l-0.009 0.002c-0.136 0.048-0.252 0.122-0.347 0.217v0c-0.070 0.079-0.163 0.136-0.268 0.162l-0.004 0.001c-0.026 0.004-0.047 0.020-0.058 0.041l-0 0c-0.062 0.084-0.142 0.15-0.235 0.195l-0.004 0.002c-0.243 0.131-0.451 0.291-0.63 0.48l-0.001 0.001c-0.049 0.047-0.107 0.084-0.172 0.108l-0.003 0.001c-0.086 0.035-0.159 0.088-0.217 0.154l-0.001 0.001-0.372 0.418h-0.163c-0.078 0.058-0.146 0.119-0.208 0.187l-0.001 0.001c-0.064 0.082-0.133 0.154-0.207 0.22l-0.002 0.002c-0.060 0.051-0.113 0.106-0.161 0.165l-0.002 0.002c-0.1 0.121-0.176 0.209-0.343 0.163-0.048 0.042-0.086 0.096-0.108 0.156l-0.001 0.003c-0.066 0.19-0.206 0.339-0.384 0.416l-0.005 0.002c-0.072 0.112-0.177 0.198-0.301 0.245l-0.004 0.001-0.071 0.18-0.050 0.029c-0.082 0.053-0.148 0.125-0.191 0.21l-0.001 0.003c-0.088 0.146-0.21 0.263-0.355 0.345l-0.005 0.003-0.046 0.096c-0.013 0.033-0.031 0.061-0.054 0.084v0l-0.125 0.151c-0.102 0.145-0.227 0.266-0.371 0.361l-0.005 0.003-0.28 0.418-0.054 0.079c-0.046 0.069-0.105 0.127-0.173 0.17l-0.002 0.001c-0.068 0.035-0.122 0.088-0.158 0.153l-0.001 0.002c-0.046 0.091-0.122 0.162-0.215 0.2l-0.003 0.001c-0.070 0.202-0.17 0.377-0.295 0.53l0.002-0.003-0.059 0.088c-0.042 0.054-0.093 0.099-0.152 0.133l-0.003 0.001c-0.022 0.017-0.047 0.032-0.073 0.045l-0.003 0.001-0.159 0.364c-0.063 0.174-0.177 0.318-0.323 0.416l-0.003 0.002c-0.086 0.231-0.215 0.428-0.38 0.589l-0 0-0.033 0.197-0.268 0.334 0.088 0.063-0.125 0.13c-0.159 0.175-0.281 0.386-0.352 0.62l-0.003 0.012-0.038 0.054-0.293 0.309c-0.004 0.084-0.046 0.157-0.108 0.204l-0.001 0.001c-0 0.007-0.001 0.015-0.001 0.023s0 0.016 0.001 0.024l-0-0.001c-0.010 0.114-0.049 0.217-0.11 0.303l0.001-0.002c-0.006 0.238-0.087 0.457-0.219 0.634l0.002-0.003-0.025 0.029c-0.032 0.105-0.074 0.197-0.128 0.28l0.003-0.004c-0.034 0.056-0.065 0.121-0.090 0.189l-0.002 0.007c-0.034 0.118-0.081 0.22-0.141 0.314l0.003-0.005c-0.044 0.070-0.077 0.151-0.095 0.238l-0.001 0.005-0.029 0.117c-0.033 0.159-0.097 0.3-0.186 0.421l0.002-0.003v0.138l-0.084 0.071c-0.009 0.105-0.036 0.201-0.077 0.289l0.002-0.005c-0.061 0.141-0.102 0.305-0.113 0.476l-0 0.004v0.046l-0.025 0.038c-0.016 0.029-0.034 0.053-0.055 0.075l0-0c-0.033 0.033-0.054 0.078-0.054 0.128 0 0.012 0.001 0.024 0.004 0.036l-0-0.001c0.001 0.013 0.001 0.029 0.001 0.044 0 0.162-0.054 0.311-0.145 0.43l0.001-0.002c-0.040 0.059-0.080 0.127-0.116 0.198l-0.005 0.011c-0.001 0.009-0.002 0.020-0.002 0.031s0.001 0.022 0.002 0.033l-0-0.001c0.003 0.021 0.004 0.044 0.004 0.069 0 0.11-0.033 0.212-0.089 0.297l0.001-0.002c0.002 0.028 0.003 0.061 0.003 0.094s-0.001 0.066-0.004 0.098l0-0.004c0 0.002 0 0.005 0 0.007 0 0.086-0.041 0.162-0.104 0.21l-0.001 0c0.001 0.017 0.001 0.036 0.001 0.056 0 0.222-0.043 0.434-0.122 0.628l0.004-0.011c-0.001 0.017-0.002 0.037-0.002 0.056s0.001 0.040 0.002 0.059l-0-0.003c0.001 0.017 0.002 0.037 0.002 0.056s-0.001 0.040-0.002 0.059l0-0.003-0.201 1.054-0.054 0.054c0.007 0.031 0.011 0.068 0.011 0.105 0 0.068-0.013 0.132-0.037 0.191l0.001-0.003c-0.007 0.019-0.012 0.040-0.012 0.063s0.004 0.044 0.012 0.064l-0-0.001c0.018 0.086 0.029 0.185 0.029 0.286 0 0.159-0.026 0.313-0.073 0.456l0.003-0.010c0.006 0.027 0.009 0.057 0.009 0.088 0 0.073-0.017 0.142-0.047 0.203l0.001-0.003c0.041 0.085 0.064 0.185 0.064 0.29 0 0.062-0.008 0.122-0.024 0.179l0.001-0.005c-0.001 0.009-0.002 0.019-0.002 0.029s0.001 0.020 0.002 0.030l-0-0.001c0.017 0.050 0.027 0.107 0.027 0.167s-0.010 0.117-0.028 0.171l0.001-0.004c0.033 0.222 0.033 0.401 0.033 0.59s0 0.364 0.042 0.544c0 0.046 0.025 0.096 0.038 0.142s0.025 0.084 0.033 0.113 0.025 0.084 0.033 0.121c0.008 0.085 0.040 0.161 0.088 0.222l-0.001-0.001c0.044 0.064 0.080 0.137 0.103 0.216l0.001 0.005c0 0.038 0.021 0.088 0.029 0.134 0.006 0.059 0.021 0.113 0.043 0.162l-0.001-0.004c0.032 0.071 0.073 0.131 0.122 0.184l-0-0.001c0.058 0.053 0.105 0.117 0.137 0.189l0.001 0.004c0.020 0.046 0.039 0.085 0.061 0.122l-0.003-0.005c0.052 0.088 0.093 0.19 0.116 0.299l0.001 0.007 0.184 0.117v0.054c0.080 0.19 0.228 0.338 0.413 0.416l0.005 0.002c0.049 0.026 0.090 0.058 0.125 0.096l0 0c0.158 0.166 0.341 0.306 0.545 0.413l0.011 0.005c0.19 0.086 0.353 0.185 0.503 0.301l-0.006-0.004c0.031 0.013 0.068 0.023 0.106 0.029l0.003 0c0.154 0.031 0.283 0.066 0.409 0.107l-0.024-0.007c0.084 0.030 0.191 0.061 0.3 0.084l0.018 0.003 0.38 0.063c0.244 0.024 0.466 0.065 0.681 0.124l-0.028-0.007 0.125 0.025 0.293 0.038c0.13-0.034 0.279-0.054 0.433-0.054 0.073 0 0.145 0.004 0.215 0.013l-0.008-0.001h0.038c0.1-0.032 0.215-0.051 0.335-0.051 0.016 0 0.032 0 0.048 0.001l-0.002-0h0.159c0.093-0.011 0.174-0.026 0.253-0.045l-0.015 0.003 0.163-0.029h0.322c0.16-0.067 0.348-0.122 0.544-0.156l0.017-0.002h0.23c0.001 0 0.001 0 0.002 0 0.052 0 0.1-0.014 0.142-0.038l-0.001 0.001c0.042-0.045 0.098-0.077 0.161-0.088l0.002-0c0.092-0.020 0.172-0.044 0.249-0.075l-0.011 0.004c0.096-0.036 0.21-0.067 0.327-0.086l0.011-0.002h0.059c0.144-0.008 0.276-0.054 0.388-0.127l-0.003 0.002c0.025-0.021 0.054-0.039 0.086-0.050l0.002-0.001 0.836-0.263c0.057-0.017 0.123-0.027 0.191-0.029l0.001-0c0.056-0.081 0.141-0.138 0.24-0.154l0.002-0 0.36-0.088c0.082-0.021 0.154-0.059 0.214-0.109l-0.001 0.001c0.142-0.124 0.318-0.212 0.512-0.25l0.007-0.001c0.106-0.024 0.199-0.060 0.286-0.107l-0.006 0.003c0.051-0.026 0.116-0.054 0.183-0.079l0.014-0.004c0.122-0.044 0.226-0.096 0.324-0.158l-0.006 0.004c0.142-0.103 0.308-0.182 0.488-0.228l0.010-0.002c0.078-0.024 0.146-0.056 0.208-0.098l-0.003 0.002c0.062-0.042 0.134-0.080 0.21-0.11l0.008-0.003c0.028-0.035 0.063-0.063 0.103-0.083l0.002-0.001 0.615-0.334c0.1-0.072 0.217-0.129 0.343-0.165l0.008-0.002 0.038-0.025c0.071-0.050 0.121-0.084 0.167-0.121 0.076-0.060 0.16-0.118 0.249-0.17l0.010-0.006c0.053-0.032 0.098-0.070 0.138-0.113l0-0c0.039-0.037 0.082-0.072 0.126-0.106l0.004-0.003c0.134-0.105 0.201-0.142 0.326-0.1 0.013-0.053 0.036-0.099 0.067-0.139l-0.001 0.001c0.063-0.091 0.158-0.155 0.269-0.175l0.003-0v-0.033l0.117-0.105q0.096-0.088 0.188-0.163c0.1-0.075 0.192-0.159 0.284-0.242l0.163-0.146c0.067-0.074 0.151-0.13 0.247-0.162l0.004-0.001 0.063-0.067 0.063-0.071c0.192-0.192 0.372-0.226 0.539-0.105l0.151 0.113-0.138 0.13-0.092 0.079c-0.059 0.047-0.111 0.098-0.157 0.153l-0.001 0.002c-0.084 0.102-0.182 0.19-0.292 0.26l-0.005 0.003-0.029 0.033c-0.083 0.133-0.203 0.236-0.346 0.295l-0.005 0.002-0.155 0.125c-0.16 0.153-0.336 0.291-0.526 0.41l-0.014 0.008c-0.024 0.043-0.050 0.080-0.080 0.114l0.001-0.001v0.084h-0.071c-0.084 0.073-0.185 0.128-0.296 0.158l-0.005 0.001c-0.068 0.086-0.159 0.151-0.264 0.187l-0.004 0.001c-0.055 0.021-0.102 0.049-0.143 0.084l0.001-0.001c-0.116 0.116-0.255 0.208-0.41 0.269l-0.008 0.003-0.029 0.025c-0.035 0.032-0.073 0.063-0.114 0.090l-0.003 0.002-0.059 0.038h-0.075c-0.147 0.138-0.324 0.245-0.521 0.311l-0.010 0.003-0.079 0.033c-0.090 0.030-0.167 0.077-0.23 0.138l0-0c-0.064 0.064-0.139 0.117-0.221 0.157l-0.005 0.002-0.878 0.418c-0.134 0.063-0.276 0.117-0.418 0.171s-0.247 0.096-0.368 0.151c-0.268 0.125-0.543 0.242-0.815 0.347s-0.418 0.151-0.644 0.217l-0.1 0.029h-0.063c-0.139 0.102-0.308 0.173-0.492 0.196l-0.005 0.001h-0.142c-0.218 0.102-0.472 0.187-0.738 0.243l-0.023 0.004-0.418 0.1c-0.156 0.048-0.356 0.096-0.56 0.133l-0.034 0.005c-0.243 0.041-0.448 0.089-0.649 0.148l0.039-0.010c-0.067 0.015-0.146 0.026-0.227 0.029l-0.003 0h-0.138l-0.222 0.033c-0.167 0.025-0.334 0.050-0.502 0.059h-0.050c-0.063-0.017-0.159-0.004-0.259-0.004zM8.073 26.047h-0.033zM3.144 12.71v0zM10.996 8.278l-0.038 0.092c0.011-0.030 0.022-0.055 0.035-0.078l-0.002 0.003s0.004-0.013 0.004-0.021zM13.245 5.719h-0.025c-0.086 0.052-0.158 0.102-0.228 0.155l0.006-0.005c0.087-0.025 0.161-0.073 0.217-0.137l0-0.001zM13.926 5.301h-0.029c-0.105 0.059-0.205 0.121-0.301 0.184h0.033c0.092-0.085 0.212-0.141 0.345-0.15l0.002-0c0.063 0 0.092-0.021 0.109-0.042 0.028-0.037 0.058-0.070 0.091-0.1l0.001-0.001c-0.072 0.040-0.156 0.071-0.245 0.091l-0.006 0.001zM15.887 5.197v0zM15.716 4.912h0.025c0.039-0.025 0.086-0.039 0.137-0.039 0.030 0 0.059 0.005 0.086 0.015l-0.002-0.001c0.047-0.020 0.101-0.031 0.158-0.031 0.014 0 0.027 0.001 0.040 0.002l-0.002-0s0-0.042-0.075-0.096c-0.029-0.024-0.062-0.046-0.097-0.065l-0.004-0.002-0.059-0.033c-0.056-0.030-0.123-0.048-0.194-0.048-0.038 0-0.075 0.005-0.11 0.015l0.003-0.001c-0.232 0.060-0.435 0.145-0.622 0.253l0.012-0.006h-0.021c0.098-0.010 0.188-0.027 0.274-0.053l-0.010 0.003c0.042-0.016 0.091-0.025 0.142-0.025 0.106 0 0.203 0.040 0.277 0.105l-0-0zM14.88 4.892h0.046c-0.007-0.002-0.015-0.004-0.023-0.004s-0.016 0.001-0.024 0.004l0.001-0zM16.163 0.573v0z"></path>
<path d="M15.858 12.246h0.033l0.021 0.025-0.038 0.021c-0.002-0.004-0.003-0.009-0.003-0.015s0.001-0.010 0.003-0.015l-0 0z"></path>
<path d="M15.85 12.459l-0.138-0.142v-0.167l0.205-0.105 0.121 0.1 0.046 0.105-0.029 0.113zM15.85 12.271l-0.1 0.029z"></path>
<path d="M15.887 12.275c-0.002-0.004-0.003-0.009-0.003-0.015s0.001-0.010 0.003-0.015l-0 0h0.033l0.021 0.025-0.038 0.021z"></path>
<path d="M15.85 12.459l-0.138-0.142v-0.176l0.192-0.088 0.117 0.084 0.050 0.117v0.096zM15.85 12.275l-0.092 0.038z"></path>
<path d="M23.751 18.563c-0.011 0.035-0.025 0.066-0.043 0.093l0.001-0.002c-0.082 0.118-0.14 0.26-0.162 0.413l-0.001 0.005c-0.026 0.118-0.057 0.22-0.097 0.318l0.005-0.013c-0.056 0.118-0.112 0.217-0.173 0.311l0.006-0.010c0 0.033-0.042 0.059-0.054 0.088l-0.217 0.531c-0.059 0.134-0.125 0.272-0.192 0.418-0.048 0.069-0.089 0.147-0.119 0.231l-0.002 0.007c-0.047 0.15-0.113 0.28-0.195 0.398l0.003-0.005 0.042 0.071-0.125 0.121c-0.024 0.219-0.122 0.412-0.267 0.556l-0 0h0.088c-0.156 0.159-0.295 0.338-0.411 0.531l-0.007 0.013c0 0.042 0 0.088 0 0.13-0.075 0.13-0.146 0.042-0.217 0.23 0.142-0.088 0.142-0.088 0.159 0l-0.096 0.105c-0.111 0.099-0.198 0.222-0.253 0.361l-0.002 0.006c-0.039 0.072-0.076 0.132-0.117 0.19l0.004-0.006-0.251 0.364c-0.084 0.121-0.142 0.234-0.071 0.284-0.188 0.109-0.18 0.113-0.217 0.326-0.067-0.033-0.113 0.059-0.155 0.171-0.052 0.125-0.124 0.232-0.213 0.322l0-0c-0.038 0.042-0.071 0.088-0.105 0.13-0.029 0.205-0.042 0.217-0.213 0.385-0.086 0.082-0.162 0.174-0.226 0.274l-0.004 0.006c-0.211 0.342-0.431 0.639-0.675 0.914l0.006-0.007c-0.074 0.082-0.131 0.181-0.162 0.292l-0.001 0.005c-0.030 0.074-0.066 0.137-0.107 0.196l0.002-0.003s0 0-0.033 0.025 0-0.084 0.033-0.146c-0.060 0.057-0.116 0.117-0.169 0.18l-0.003 0.003c-0.059 0.067-0.105 0.146-0.159 0.217l-0.188 0.255c-0.063 0.095-0.14 0.175-0.227 0.241l-0.003 0.002c-0.171 0.122-0.311 0.275-0.414 0.453l-0.004 0.007c-0.020 0.033-0.044 0.062-0.071 0.088l-0 0c-0.1 0.096-0.205 0.184-0.297 0.284s-0.272 0.222-0.36 0.364c-0.030 0.035-0.066 0.065-0.107 0.087l-0.002 0.001c-0.108 0.044-0.195 0.122-0.25 0.219l-0.001 0.003c-0.027 0.027-0.057 0.050-0.090 0.070l-0.002 0.001c-0.088 0.060-0.164 0.121-0.236 0.186l0.002-0.002c-0.080 0.091-0.174 0.167-0.279 0.227l-0.005 0.003c-0.188 0.102-0.349 0.229-0.484 0.379l-0.001 0.002c-0.047 0.050-0.108 0.087-0.177 0.104l-0.002 0c-0.070 0.023-0.131 0.054-0.186 0.093l0.002-0.001c-0.205 0.135-0.44 0.259-0.688 0.358l-0.027 0.009c-0.13 0.059-0.255 0.1-0.38 0.167-0.064 0.030-0.139 0.052-0.217 0.062l-0.004 0c-0.016-0.002-0.034-0.003-0.053-0.003-0.105 0-0.202 0.036-0.278 0.096l0.001-0.001-0.075 0.029c-0.038 0.004-0.081 0.006-0.125 0.006s-0.088-0.002-0.131-0.007l0.005 0c0 0.025 0 0.046-0.029 0.088-0.067-0.036-0.123-0.070-0.177-0.108l0.005 0.003c-0.036-0.025-0.078-0.045-0.122-0.058l-0.003-0.001c-0.228-0.081-0.425-0.193-0.597-0.333l0.004 0.003c-0.234-0.163-0.297-0.418-0.443-0.648-0.025-0.242-0.213-0.443-0.205-0.694-0.003-0.025-0.011-0.047-0.021-0.068l0.001 0.001c-0.050-0.090-0.080-0.198-0.080-0.312 0-0.037 0.003-0.074 0.009-0.11l-0.001 0.004c0.004-0.025 0.006-0.053 0.006-0.082 0-0.068-0.013-0.134-0.037-0.193l0.001 0.004c-0.019-0.037-0.030-0.081-0.030-0.128s0.011-0.090 0.030-0.129l-0.001 0.002c0.034-0.065 0.053-0.142 0.053-0.224 0-0.050-0.007-0.098-0.021-0.143l0.001 0.004c-0.003-0.040-0.005-0.087-0.005-0.134s0.002-0.094 0.005-0.14l-0 0.006c-0.054 0-0.071-0.067-0.038-0.197 0.048-0.17 0.078-0.367 0.084-0.57l0-0.003c0.021-0.175 0.052-0.331 0.093-0.483l-0.005 0.023c0.033-0.184 0.088-0.376 0.1-0.548 0.002-0.119 0.041-0.229 0.106-0.319l-0.001 0.002c0-0.029 0.033-0.075 0.067-0.146l-0.054-0.134c0.092-0.151 0.154-0.33 0.171-0.522l0-0.005c0.034-0.186 0.087-0.351 0.16-0.506l-0.005 0.012c0.061-0.121 0.108-0.262 0.133-0.409l0.001-0.009c0.007-0.036 0.017-0.068 0.030-0.099l-0.001 0.003c0.063-0.142 0.125-0.288 0.192-0.418 0.049-0.083 0.082-0.181 0.092-0.286l0-0.003c0.005-0.081 0.031-0.156 0.072-0.219l-0.001 0.002 0.326-0.581c0.015-0.031 0.031-0.068 0.044-0.106l0.002-0.006c0.121-0.28 0.251-0.556 0.418-0.836 0-0.029 0.033-0.059 0.042-0.084 0.061-0.202 0.188-0.369 0.356-0.479l0.003-0.002c0.031-0.022 0.057-0.049 0.079-0.078l0.001-0.001c0.071-0.1 0.138-0.201 0.213-0.297 0.085-0.12 0.176-0.225 0.275-0.321l0.001-0.001c0.126-0.113 0.24-0.235 0.342-0.366l0.005-0.006c0.070-0.104 0.171-0.183 0.289-0.225l0.004-0.001c0.12-0.058 0.22-0.139 0.3-0.237l0.001-0.002c0.103-0.099 0.234-0.172 0.379-0.204l0.005-0.001c0.033-0.010 0.063-0.022 0.089-0.039l-0.002 0.001c0.069-0.036 0.15-0.057 0.237-0.057 0.030 0 0.060 0.003 0.088 0.007l-0.003-0c0.019 0.003 0.041 0.004 0.063 0.004 0.070 0 0.136-0.015 0.195-0.043l-0.003 0.001c0.077-0.042 0.17-0.067 0.268-0.067s0.19 0.025 0.27 0.069l-0.003-0.001c0.029-0.002 0.062-0.004 0.096-0.004s0.067 0.001 0.101 0.004l-0.004-0c0.088 0.059 0.155 0.096 0.23 0.142s0.209 0.109 0.309 0.159c0.112 0.034 0.198 0.119 0.233 0.227l0.001 0.002c0.044 0.088 0.115 0.156 0.202 0.195l0.003 0.001c0.11 0.041 0.201 0.11 0.266 0.199l0.001 0.002h0.322c0-0.042 0-0.088 0-0.13s0-0.125-0.088-0.23-0.067-0.096-0.1-0.138c-0.081-0.113-0.186-0.204-0.309-0.265l-0.005-0.002c-0.206-0.109-0.444-0.198-0.695-0.255l-0.020-0.004c-0.063-0.066-0.152-0.107-0.25-0.107-0.013 0-0.027 0.001-0.040 0.002l0.002-0c-0.069-0.005-0.134-0.015-0.196-0.031l0.008 0.002c-0.089-0.038-0.193-0.060-0.302-0.060-0.019 0-0.037 0.001-0.056 0.002l0.002-0c-0.176 0-0.36 0.033-0.527 0.033h-0.075c-0.251 0.074-0.468 0.168-0.672 0.284l0.016-0.008c-0.199 0.102-0.37 0.217-0.526 0.35l0.004-0.003c-0.283 0.224-0.531 0.474-0.745 0.751l-0.007 0.010c-0.121 0.176-0.314 0.355-0.456 0.544-0.028 0.029-0.054 0.060-0.078 0.094l-0.002 0.003c-0.127 0.242-0.254 0.447-0.395 0.642l0.010-0.015c-0.038 0.051-0.070 0.109-0.094 0.171l-0.002 0.005c-0.045 0.125-0.102 0.232-0.174 0.33l0.002-0.004c-0.258 0.379-0.463 0.819-0.591 1.291l-0.007 0.030c-0.062 0.212-0.124 0.386-0.196 0.555l0.012-0.032c-0.088 0.226-0.176 0.452-0.251 0.686-0.036 0.147-0.079 0.272-0.132 0.392l0.006-0.016c-0.023 0.048-0.037 0.103-0.042 0.162l-0 0.002c-0.010 0.184-0.056 0.355-0.133 0.509l0.003-0.007c-0.043 0.103-0.073 0.222-0.083 0.347l-0 0.004c-0.004 0.089-0.017 0.174-0.040 0.255l0.002-0.008c-0.074 0.235-0.13 0.511-0.158 0.795l-0.001 0.017c-0.029 0.197-0.042 0.393-0.079 0.594s-0.021 0.389-0.042 0.585c0 0 0 0.033 0 0.050v0.247c-0.003 0.030-0.005 0.065-0.005 0.1s0.002 0.070 0.005 0.105l-0-0.004c0.041 0.153 0.068 0.331 0.075 0.514l0 0.005c-0 0.009-0.001 0.020-0.001 0.030 0 0.141 0.031 0.274 0.086 0.394l-0.002-0.006c0.014 0.034 0.025 0.074 0.029 0.115l0 0.002c0.032 0.192 0.074 0.36 0.128 0.522l-0.007-0.024c0.059 0.226 0.177 0.419 0.338 0.568l0.001 0.001c0.065 0.054 0.123 0.113 0.174 0.177l0.002 0.002c0.117 0.208 0.313 0.36 0.546 0.417l0.006 0.001c0.095 0.035 0.208 0.064 0.324 0.082l0.011 0.001c0.070 0.014 0.151 0.022 0.234 0.022 0.142 0 0.279-0.023 0.406-0.066l-0.009 0.003c0.012-0.002 0.026-0.003 0.040-0.003s0.028 0.001 0.041 0.003l-0.001-0c0.254-0.018 0.489-0.084 0.701-0.189l-0.011 0.005c0.386-0.144 0.721-0.329 1.022-0.555l-0.010 0.007c0.018-0.015 0.039-0.028 0.061-0.037l0.002-0.001c0.162-0.073 0.301-0.17 0.418-0.288l0-0c0.067-0.054 0.155-0.096 0.222-0.155s0.151-0.109 0.217-0.167c0.151-0.138 0.288-0.284 0.443-0.418 0.119-0.127 0.257-0.234 0.41-0.318l0.008-0.004c0.099-0.036 0.179-0.102 0.233-0.186l0.001-0.002c0.090-0.135 0.192-0.252 0.307-0.354l0.002-0.002c0.121-0.113 0.234-0.247 0.351-0.368l0.351-0.364 0.167-0.159c0.038-0.040 0.071-0.085 0.099-0.135l0.002-0.003c0.004-0.015 0.006-0.032 0.006-0.050s-0.002-0.035-0.006-0.052l0 0.001c0.174-0.103 0.315-0.244 0.415-0.413l0.003-0.005c0.028-0.054 0.062-0.101 0.101-0.142l-0 0 0.401-0.477c0.038-0.046 0.067-0.096 0.1-0.142 0.040-0.067 0.080-0.124 0.124-0.179l-0.002 0.003c0.309-0.334 0.498-0.769 0.778-1.129 0 0 0-0.029 0.025-0.042 0.067-0.113 0.134-0.242 0.205-0.343 0.132-0.186 0.258-0.398 0.368-0.62l0.012-0.028 0.054-0.088c0.109-0.188 0.226-0.376 0.33-0.569 0.169-0.256 0.322-0.549 0.444-0.858l0.011-0.033c0.017-0.040 0.038-0.074 0.063-0.105l-0.001 0.001c0.089-0.128 0.165-0.274 0.221-0.43l0.004-0.013c0.029-0.075 0.063-0.155 0.1-0.23 0.134-0.227 0.274-0.502 0.398-0.785l0.020-0.051c0.142-0.33 0.309-0.644 0.418-0.991 0.069-0.128 0.137-0.281 0.193-0.44l0.007-0.024c0.016-0.038 0.036-0.071 0.059-0.101l-0.001 0.001c0.063-0.134 0.138-0.259 0.192-0.397 0.084-0.226 0.155-0.456 0.234-0.686l0.079-0.209c0.109-0.255 0.192-0.518 0.284-0.778l0.075-0.188c0.063-0.171 0.134-0.343 0.192-0.514s0.142-0.439 0.197-0.661c0-0.038 0.038-0.075 0.050-0.113 0.067-0.217 0.146-0.418 0.197-0.648 0.046-0.229 0.129-0.432 0.243-0.614l-0.004 0.008c-0.050-0.125 0.029-0.305 0.088-0.464 0.077-0.162 0.124-0.351 0.13-0.55l0-0.002c0.038-0.069 0.071-0.15 0.094-0.235l0.002-0.008c0.030-0.18 0.067-0.337 0.115-0.489l-0.007 0.024c0.087-0.396 0.182-0.724 0.295-1.045l-0.019 0.062c0.014-0.041 0.025-0.091 0.033-0.141l0.001-0.005c0.079-0.477 0.184-0.957 0.255-1.442 0.050-0.238 0.095-0.535 0.123-0.836l0.003-0.033c0.003-0.045 0.011-0.086 0.022-0.126l-0.001 0.004c0.031-0.108 0.059-0.241 0.078-0.377l0.002-0.016c0.031-0.194 0.049-0.417 0.049-0.645 0-0.054-0.001-0.108-0.003-0.161l0 0.008c-0.038-0.238-0.033-0.418-0.063-0.694 0 0 0-0.109-0.163-0.071-0.019 0.012-0.036 0.026-0.050 0.042l-0 0v0.025c-0.013 0.022-0.025 0.048-0.036 0.075l-0.002 0.004c-0.015 0.039-0.028 0.085-0.037 0.133l-0.001 0.005c-0.017 0.087-0.043 0.164-0.078 0.235l0.002-0.005c-0.024 0.058-0.040 0.124-0.046 0.194l-0 0.002c0.002 0.018 0.004 0.038 0.004 0.059 0 0.071-0.015 0.138-0.043 0.199l0.001-0.003c-0.026 0.060-0.044 0.129-0.050 0.202l-0 0.003c0 0.011 0 0.025 0 0.038 0 0.172-0.021 0.339-0.062 0.499l0.003-0.014c-0.054 0.272-0.102 0.611-0.131 0.955l-0.003 0.036c-0.007 0.062-0.018 0.119-0.035 0.174l0.002-0.006c-0.032 0.088-0.050 0.189-0.050 0.295 0 0.043 0.003 0.086 0.009 0.128l-0.001-0.005c-0.080 0.221-0.137 0.476-0.158 0.742l-0.001 0.011-0.029 0.188c0 0.088-0.042 0.176-0.054 0.268l-0.071 0.573c-0.032 0.146-0.050 0.314-0.050 0.486 0 0.009 0 0.017 0 0.026v-0.001c-0.001 0.061-0.009 0.12-0.022 0.177l0.001-0.006c-0.050 0.314-0.113 0.631-0.146 0.945-0.007 0.152-0.035 0.294-0.083 0.428l0.003-0.010c0.005 0.049 0.008 0.106 0.008 0.163s-0.003 0.114-0.009 0.17l0.001-0.007c0 0.176-0.059 0.318-0.084 0.481 0 0.059-0.025 0.113-0.029 0.171-0.010 0.237-0.032 0.459-0.067 0.676l0.004-0.032c-0.002 0.014-0.003 0.031-0.003 0.048s0.001 0.034 0.003 0.050l-0-0.002c0.009 0.036 0.014 0.078 0.014 0.121 0 0.072-0.014 0.141-0.040 0.205l0.001-0.004c-0.032 0.097-0.061 0.215-0.082 0.336l-0.002 0.015c-0.042 0.418-0.067 0.836-0.138 1.284 0 0.038 0 0.079 0 0.121l-0.079 0.481c-0.017 0.094-0.027 0.204-0.029 0.316l-0 0.002c0.001 0.021 0.002 0.045 0.002 0.069 0 0.112-0.016 0.221-0.046 0.324l0.002-0.008c0 0.054-0.025 0.109-0.033 0.163s0 0.205-0.038 0.355c0.005 0.030 0.008 0.065 0.008 0.1s-0.003 0.070-0.008 0.104l0-0.004c-0.040 0.155-0.078 0.354-0.105 0.555l-0.003 0.030c-0.029 0.106-0.046 0.227-0.046 0.352 0 0.011 0 0.023 0 0.034l-0-0.002c-0 0.060-0.011 0.117-0.030 0.171l0.001-0.004c-0.071 0.236-0.131 0.519-0.169 0.809l-0.003 0.027c0 0.063 0 0.142-0.029 0.192-0.032 0.095-0.051 0.203-0.051 0.317 0 0.036 0.002 0.071 0.005 0.106l-0-0.004c0.003 0.021 0.005 0.045 0.005 0.069s-0.002 0.048-0.005 0.072l0-0.003c-0.083 0.29-0.14 0.628-0.158 0.975l-0 0.012c-0.003 0.116-0.018 0.226-0.044 0.332l0.002-0.011c-0.036 0.125-0.057 0.269-0.059 0.417v0.001c-0.004 0.1-0.014 0.195-0.031 0.288l0.002-0.012c-0.053 0.224-0.084 0.48-0.084 0.744 0 0.060 0.002 0.12 0.005 0.18l-0-0.008c0.005 0.053 0.008 0.115 0.008 0.178s-0.003 0.124-0.008 0.186l0.001-0.008c-0.029 0.297 0 0.602-0.021 0.895-0.001 0.011-0.002 0.024-0.002 0.038s0.001 0.026 0.002 0.039l-0-0.002c0.001 0.243 0.037 0.478 0.105 0.699l-0.005-0.017c0.002 0.014 0.003 0.031 0.003 0.048s-0.001 0.034-0.003 0.050l0-0.002c-0.001 0.015-0.001 0.033-0.001 0.052 0 0.096 0.013 0.189 0.036 0.278l-0.002-0.007c0.028 0.087 0.054 0.196 0.073 0.307l0.002 0.015c0.089 0.497 0.214 0.935 0.376 1.354l-0.017-0.049 0.046 0.096c0.142 0.312 0.321 0.579 0.537 0.813l-0.002-0.002c0.17 0.194 0.419 0.316 0.695 0.316 0.090 0 0.178-0.013 0.26-0.037l-0.007 0.002c0.304-0.114 0.558-0.305 0.745-0.548l0.003-0.004c0.041-0.041 0.076-0.088 0.103-0.139l0.002-0.003c0.052-0.116 0.124-0.215 0.213-0.296l0.001-0.001c0.051-0.059 0.097-0.124 0.135-0.195l0.003-0.006c0.038-0.063 0.071-0.134 0.105-0.201 0.111-0.213 0.231-0.48 0.336-0.755l0.019-0.056c0.041-0.055 0.079-0.116 0.11-0.182l0.003-0.006c0.113-0.309 0.192-0.623 0.284-0.945 0.059-0.18 0.067-0.38 0.138-0.564 0.002-0.015 0.003-0.032 0.003-0.050s-0.001-0.035-0.003-0.052l0 0.002c0-0.141 0.016-0.278 0.044-0.41l-0.002 0.013c0.008-0.088 0.012-0.191 0.012-0.295s-0.005-0.206-0.013-0.308l0.001 0.013c-0.033-0.308-0.083-0.584-0.151-0.852l0.009 0.041c-0.038-0.15-0.084-0.28-0.14-0.404l0.006 0.015c-0.054-0.113-0.1-0.226-0.163-0.334s-0.138-0.205-0.201-0.314c-0.155-0.247-0.337-0.459-0.544-0.641l-0.003-0.003c-0.019-0.029-0.041-0.053-0.066-0.075l-0-0-0.418-0.347c-0.14-0.099-0.299-0.187-0.469-0.257l-0.016-0.006c-0.057-0.031-0.105-0.062-0.15-0.095l0.004 0.003c-0.157-0.103-0.34-0.181-0.537-0.224l-0.011-0.002c-0.032-0.016-0.059-0.034-0.084-0.055l0.001 0.001c-0.219-0.088-0.498-0.18-0.783-0.256l-0.054-0.012-0.489-0.109-0.51-0.042c-0.326-0.033-0.644-0.075-0.974-0.079h-0.535l-0.552 0.038c-0.088 0.007-0.169 0.028-0.243 0.060l0.005-0.002c-0.111 0.050-0.239 0.080-0.375 0.084l-0.001 0c-0.134 0.025-0.272 0.046-0.418 0.084-0.157 0.037-0.288 0.129-0.375 0.253l-0.001 0.002s-0.046 0.038-0.033 0.075c0.011 0.031 0.031 0.055 0.058 0.071l0.001 0 0.050 0.033c0.146 0 0.226-0.054 0.28-0.050 0.001 0 0.003 0 0.005 0 0.181 0 0.353-0.037 0.509-0.104l-0.009 0.003c0.071-0.025 0.153-0.043 0.239-0.050l0.004-0c0.111-0.002 0.214-0.037 0.299-0.097l-0.002 0.001c0.019 0.001 0.042 0.002 0.064 0.002 0.2 0 0.385-0.064 0.536-0.171l-0.003 0.002c0.381-0.066 0.715-0.156 1.037-0.273l-0.042 0.013c0.008 0 0.018 0 0.028 0 0.143 0 0.277-0.036 0.395-0.099l-0.004 0.002c0.034-0.018 0.073-0.031 0.115-0.037l0.002-0c0.142-0.020 0.27-0.057 0.39-0.108l-0.010 0.004c0.108-0.040 0.248-0.081 0.39-0.116l0.028-0.006c-0.046-0.096-0.155-0.105-0.364-0.038-0.077 0.034-0.168 0.063-0.263 0.082l-0.009 0.002c-0.010-0-0.022-0.001-0.034-0.001-0.111 0-0.218 0.022-0.315 0.061l0.006-0.002-0.598 0.167-0.376 0.121-0.042 0.050c-0.155 0-0.234-0.025-0.38 0.050s-0.096 0.113-0.13 0.197c-0.064-0.022-0.12-0.048-0.172-0.078l0.005 0.002c-0.079-0.059-0.079-0.063-0.272 0s-0.263 0.109-0.389 0.134c-0.192 0.033-0.355 0.096-0.535 0.13-0.021 0.003-0.046 0.005-0.071 0.005s-0.050-0.002-0.074-0.006l0.003 0c-0.034-0.003-0.073-0.005-0.113-0.005s-0.079 0.002-0.118 0.005l0.005-0s0 0 0 0.042-0.021 0 0 0 0 0 0.038 0.029 0 0 0.033-0.021l0.1-0.063c0.191-0.079 0.416-0.144 0.649-0.185l0.020-0.003c0.059 0 0.121-0.050 0.159-0.050 0.164-0.036 0.354-0.058 0.549-0.063l0.003-0c0.031 0.001 0.068 0.002 0.106 0.002 0.158 0 0.312-0.013 0.463-0.038l-0.016 0.002c0.066-0.007 0.144-0.011 0.222-0.011s0.155 0.004 0.231 0.012l-0.009-0.001c0.217 0.004 0.427 0.024 0.631 0.058l-0.025-0.003c0.127 0.035 0.272 0.055 0.422 0.055 0.046 0 0.091-0.002 0.136-0.006l-0.006 0c0.034-0.006 0.074-0.010 0.114-0.010 0.085 0 0.166 0.016 0.241 0.045l-0.005-0.002 0.418 0.13c0.109 0.033 0.192 0.050 0.222 0s0.025 0 0 0c0.075 0.046 0.164 0.094 0.256 0.136l0.015 0.006c0.361 0.128 0.661 0.259 0.949 0.409l-0.042-0.020c0.006 0.002 0.013 0.003 0.021 0.003s0.015-0.001 0.021-0.003l-0.001 0c0.208 0.065 0.388 0.171 0.536 0.31l-0.001-0.001c0.163 0.167 0.368 0.251 0.514 0.418 0.020 0.022 0.044 0.040 0.070 0.054l0.001 0.001c0.091 0.044 0.165 0.111 0.216 0.194l0.001 0.002c0.057 0.057 0.105 0.121 0.144 0.192l0.002 0.004c0.096 0.197 0.222 0.368 0.33 0.556 0 0 0 0.029 0 0.046 0.033 0.096 0.063 0.197 0.105 0.293s0.063 0.142 0.088 0.217l0.050 0.226c0 0.192 0.054 0.376 0.084 0.569 0.003 0.018 0.005 0.039 0.005 0.061s-0.002 0.042-0.005 0.063l0-0.002c-0.011 0.104-0.018 0.225-0.018 0.347s0.006 0.243 0.019 0.362l-0.001-0.015c-0.029 0.134-0.050 0.226-0.075 0.314-0.021 0.084-0.042 0.152-0.067 0.219l0.005-0.014c-0.105 0.259-0.176 0.527-0.255 0.799l-0.105 0.326c-0.084 0.263-0.23 0.506-0.301 0.769-0.019 0.075-0.049 0.14-0.089 0.198l0.001-0.002c-0.116 0.151-0.23 0.322-0.331 0.5l-0.012 0.022c-0.141 0.253-0.326 0.465-0.547 0.632l-0.005 0.004-0.088 0.075c-0.099 0.141-0.26 0.232-0.443 0.232-0.097 0-0.188-0.026-0.266-0.070l0.003 0.001c-0.094-0.003-0.182-0.019-0.265-0.048l0.006 0.002c-0.095-0.174-0.187-0.32-0.288-0.459l0.008 0.012c-0.032-0.062-0.071-0.116-0.117-0.163l0 0c-0.065-0.072-0.121-0.155-0.165-0.245l-0.003-0.006c-0.041-0.099-0.081-0.222-0.113-0.348l-0.004-0.020c-0.015-0.063-0.040-0.119-0.072-0.169l0.001 0.002c-0.077-0.094-0.129-0.211-0.146-0.339l-0-0.003c0-0.075-0.054-0.151-0.084-0.23-0.025-0.059-0.044-0.128-0.054-0.2l-0.001-0.005c-0.088-0.418-0.096-0.836-0.159-1.254-0.003-0.018-0.005-0.038-0.005-0.059s0.002-0.041 0.005-0.061l-0 0.002c0.011-0.042 0.017-0.090 0.017-0.14s-0.006-0.098-0.018-0.144l0.001 0.004c-0.005-0.022-0.008-0.047-0.008-0.073s0.003-0.051 0.008-0.075l-0 0.002c0.012-0.046 0.019-0.1 0.019-0.155 0-0.12-0.034-0.233-0.092-0.329l0.002 0.003c0.037-0.069 0.059-0.151 0.059-0.238 0-0.024-0.002-0.047-0.005-0.070l0 0.003c-0.003-0.014-0.004-0.030-0.004-0.046s0.002-0.032 0.004-0.048l-0 0.002c0.035-0.144 0.054-0.31 0.054-0.481 0-0.094-0.006-0.187-0.018-0.278l0.001 0.011c-0.010-0.035-0.016-0.075-0.016-0.117s0.006-0.082 0.017-0.12l-0.001 0.003c0.013-0.041 0.020-0.089 0.020-0.138s-0.007-0.097-0.021-0.141l0.001 0.003s0-0.029 0-0.059l0.063-0.084c0-0.134 0.033-0.251 0.046-0.364l0.029-0.238v-0.142l0.046-0.347c0.003-0.106 0.014-0.207 0.031-0.305l-0.002 0.013c0.074-0.212 0.117-0.456 0.117-0.71 0-0.014-0-0.027-0-0.041l0 0.002s0 0 0-0.029 0.092-0.033 0.092-0.167 0-0.171-0.025-0.263c0.047-0.085 0.075-0.187 0.075-0.295 0-0.026-0.002-0.051-0.005-0.076l0 0.003c0.001-0.059 0.010-0.114 0.026-0.167l-0.001 0.004c0.033-0.1 0.067-0.192 0.105-0.28 0.051-0.102 0.080-0.222 0.080-0.349 0-0.032-0.002-0.063-0.005-0.094l0 0.004c-0.003-0.022-0.005-0.048-0.005-0.075 0-0.096 0.023-0.187 0.065-0.267l-0.002 0.003c0.010-0.019 0.018-0.041 0.025-0.064l0.001-0.002c-0.001-0.032-0.002-0.070-0.002-0.108 0-0.182 0.016-0.36 0.046-0.534l-0.003 0.018c0.011-0.045 0.017-0.097 0.017-0.151s-0.006-0.105-0.018-0.155l0.001 0.005s0-0.029 0-0.063 0.046-0.075 0.063-0.109c-0.002-0.023-0.003-0.049-0.003-0.075s0.001-0.053 0.004-0.079l-0 0.003c0.050-0.146 0.079-0.314 0.079-0.489 0-0.040-0.002-0.079-0.005-0.119l0 0.005c-0-0.013-0.001-0.028-0.001-0.044 0-0.115 0.016-0.227 0.045-0.333l-0.002 0.009c0.025-0.098 0.041-0.211 0.046-0.327l0-0.003c0-0.209 0.079-0.418 0.075-0.615 0 0 0-0.029 0-0.042 0.052-0.138 0.082-0.297 0.082-0.463 0-0.071-0.006-0.141-0.016-0.209l0.001 0.008c-0.004-0.018-0.006-0.038-0.006-0.059s0.002-0.041 0.007-0.060l-0 0.002c0.010-0.042 0.016-0.090 0.016-0.14s-0.006-0.098-0.016-0.144l0.001 0.004c-0.001-0.011-0.002-0.024-0.002-0.037 0-0.050 0.008-0.097 0.023-0.142l-0.001 0.003c0.059-0.088 0-0.163 0-0.197l0.176-0.51c-0-0.010-0-0.022-0-0.034 0-0.305 0.044-0.6 0.127-0.878l-0.006 0.022c-0.054 0-0.125 0.105-0.138-0.084l0.1-0.1c0.038-0.155 0.075-0.288 0.113-0.447 0-0.063-0.025-0.146-0.038-0.238 0.078-0.219 0.124-0.471 0.124-0.734 0-0.036-0.001-0.072-0.003-0.107l0 0.005c0.087-0.146 0.138-0.323 0.138-0.511 0-0.001 0-0.002 0-0.003v0c0-0.063 0-0.125 0-0.188s0-0.192 0-0.326c0 0 0.033-0.059 0.054-0.109 0.027-0.050 0.047-0.107 0.058-0.168l0.001-0.004c0.033-0.157 0.052-0.338 0.052-0.523 0-0.111-0.007-0.22-0.020-0.326l0.001 0.013c0.064-0.075 0.103-0.173 0.105-0.28v-0c0-0 0-0.001 0-0.001 0-0.125 0.031-0.243 0.086-0.346l-0.002 0.004c0.022-0.054 0.038-0.116 0.046-0.181l0-0.003 0.071-0.673c-0.001-0.011-0.002-0.023-0.002-0.036s0.001-0.025 0.002-0.037l-0 0.002c0.076-0.215 0.135-0.467 0.166-0.727l0.002-0.017c0.001-0.009 0.002-0.020 0.002-0.031s-0.001-0.022-0.002-0.033l0 0.001-0.084 0.092c-0-0.006-0.001-0.013-0.001-0.020 0-0.072 0.020-0.138 0.056-0.195l-0.001 0.002c0.039-0.071 0.079-0.157 0.112-0.245l0.005-0.014 0.046-0.13c0-0.029 0.029 0-0.054-0.084 0 0 0 0-0.033 0.025-0.006-0.001-0.014-0.002-0.021-0.002s-0.015 0.001-0.022 0.002l0.001-0s0 0 0 0.021c0.025 0.078 0.039 0.168 0.039 0.261 0 0.056-0.005 0.11-0.015 0.163l0.001-0.005 0.079 0.213c-0.048 0.099-0.075 0.214-0.075 0.337 0 0.029 0.002 0.057 0.005 0.085l-0-0.003c-0.002 0.034-0.009 0.065-0.022 0.094l0.001-0.002c-0.023 0.074-0.036 0.16-0.036 0.248 0 0.094 0.015 0.184 0.041 0.268l-0.002-0.006c0.015 0.059 0.023 0.127 0.023 0.197s-0.009 0.137-0.025 0.202l0.001-0.006-0.038 0.021c-0.084 0.038-0.088 0.050-0.096 0.238-0.001 0.106-0.012 0.208-0.031 0.308l0.002-0.011c-0.019 0.093-0.033 0.202-0.037 0.313l-0 0.004c-0.012 0.134-0.035 0.257-0.066 0.375l0.004-0.016c-0.025 0.064-0.056 0.119-0.093 0.169l0.001-0.002c0 0.18-0.042 0.376-0.063 0.569-0.014 0.138-0.051 0.264-0.107 0.378l0.003-0.006c-0.024 0.045-0.042 0.097-0.050 0.152l-0 0.003c-0.058 0.352-0.149 0.667-0.274 0.965l0.010-0.028c-0.034 0.074-0.054 0.16-0.054 0.251v0c0 0.006 0.001 0.013 0.001 0.021 0 0.077-0.024 0.148-0.064 0.206l0.001-0.001c-0.042 0.070-0.069 0.152-0.075 0.241l-0 0.002c-0.024 0.201-0.070 0.383-0.135 0.556l0.005-0.016c-0.036 0.086-0.069 0.19-0.094 0.296l-0.002 0.013c-0.081 0.224-0.136 0.483-0.154 0.752l-0 0.009c-0.048 0.072-0.093 0.154-0.13 0.241l-0.004 0.010c-0.033 0.158-0.090 0.298-0.166 0.424l0.003-0.006c-0.015 0.027-0.026 0.057-0.033 0.090l-0 0.002-0.134 0.472c-0.020 0.069-0.046 0.128-0.077 0.184l0.002-0.004c-0.068 0.121-0.118 0.262-0.141 0.411l-0.001 0.007c-0.008 0.075-0.030 0.143-0.064 0.203l0.001-0.003c-0.108 0.209-0.194 0.451-0.244 0.706l-0.003 0.017c-0.071 0.167-0.121 0.28-0.171 0.389zM12.099 30.825s0 0 0.029 0.029 0 0 0 0.025 0 0-0.038-0.033z"></path>
<path d="M13.274 31.737c-0.041 0.003-0.088 0.004-0.136 0.004s-0.095-0.002-0.142-0.005l0.006 0c-0.139-0.021-0.263-0.053-0.381-0.096l0.013 0.004c-0.281-0.070-0.51-0.253-0.641-0.496l-0.003-0.005s-0.088-0.092-0.117-0.113c-0.191-0.165-0.331-0.385-0.395-0.635l-0.002-0.009c-0.050-0.142-0.093-0.312-0.123-0.487l-0.003-0.019c0.003-0.014 0.004-0.030 0.004-0.046s-0.001-0.032-0.004-0.048l0 0.002c-0.061-0.131-0.096-0.284-0.096-0.445 0-0.001 0-0.002 0-0.002v0-0.105c0.001-0.018 0.001-0.039 0.001-0.061 0-0.138-0.014-0.273-0.041-0.404l0.002 0.013c-0.004-0.028-0.006-0.060-0.006-0.092s0.002-0.064 0.007-0.096l-0 0.004v-0.293c-0.002-0.012-0.003-0.026-0.003-0.040s0.001-0.028 0.004-0.041l-0 0.001c0.002-0.036 0.003-0.077 0.003-0.119s-0.001-0.084-0.003-0.125l0 0.006c0.001-0.125 0.011-0.246 0.031-0.365l-0.002 0.013c0.021-0.117 0.033-0.234 0.050-0.347s0-0.163 0.029-0.242v-0.105c0.024-0.273 0.077-0.524 0.157-0.763l-0.007 0.023c0.012-0.046 0.019-0.099 0.021-0.154l0-0.001v-0.054c0.013-0.142 0.044-0.272 0.091-0.394l-0.003 0.010 0.029-0.075c0.056-0.107 0.090-0.233 0.092-0.367v-0.001c0.003-0.090 0.026-0.175 0.064-0.25l-0.002 0.003c0.034-0.066 0.061-0.143 0.078-0.224l0.001-0.006c0-0.042 0.021-0.079 0.033-0.117 0.067-0.209 0.142-0.418 0.217-0.606l0.038-0.092c0-0.054 0.042-0.109 0.063-0.163 0.037-0.087 0.077-0.198 0.111-0.311l0.006-0.023c0.141-0.523 0.356-0.981 0.637-1.391l-0.010 0.015 0.029-0.046c0.051-0.070 0.094-0.15 0.124-0.236l0.002-0.006c0.033-0.086 0.075-0.161 0.127-0.228l-0.001 0.002c0.096-0.13 0.189-0.278 0.271-0.432l0.009-0.019 0.092-0.159c0.021-0.035 0.043-0.065 0.068-0.093l-0.001 0.001c0.088-0.109 0.163-0.197 0.242-0.28s0.167-0.188 0.23-0.276c0.182-0.247 0.385-0.461 0.613-0.647l0.006-0.005 0.159-0.138c0.16-0.135 0.34-0.258 0.531-0.36l0.016-0.008c0.199-0.114 0.429-0.212 0.671-0.283l0.023-0.006c0.038-0.014 0.083-0.023 0.129-0.025l0.001-0c0.030 0.002 0.065 0.003 0.1 0.003s0.070-0.001 0.105-0.003l-0.005 0c0.049-0.006 0.106-0.009 0.163-0.009s0.114 0.003 0.17 0.010l-0.007-0.001c0.020-0.002 0.043-0.003 0.066-0.003 0.128 0 0.249 0.029 0.357 0.080l-0.005-0.002s0.079 0 0.13 0c0.013-0.001 0.028-0.002 0.043-0.002 0.122 0 0.233 0.045 0.317 0.119l-0.001-0c0.265 0.062 0.497 0.151 0.714 0.267l-0.016-0.008c0.151 0.073 0.277 0.18 0.37 0.311l0.002 0.003 0.1 0.138c0.075 0.079 0.121 0.185 0.121 0.302 0 0.020-0.001 0.040-0.004 0.059l0-0.002-0.029 0.251h-0.552l-0.029-0.084c-0.084-0.088-0.134-0.146-0.188-0.155-0.142-0.053-0.254-0.157-0.316-0.289l-0.001-0.003c0-0.050-0.033-0.096-0.151-0.142l-0.322-0.167-0.197-0.121h-0.18l-0.046-0.029c-0.056-0.030-0.122-0.047-0.192-0.047s-0.136 0.017-0.195 0.048l0.002-0.001c-0.077 0.038-0.167 0.061-0.263 0.061-0.031 0-0.062-0.002-0.092-0.007l0.003 0c-0.007-0-0.014-0.001-0.022-0.001-0.073 0-0.142 0.019-0.202 0.052l0.002-0.001c-0.038 0.024-0.083 0.041-0.132 0.050l-0.002 0c-0.095 0.020-0.178 0.065-0.242 0.13v0l-0.067 0.050c-0.107 0.102-0.235 0.182-0.377 0.232l-0.007 0.002c-0.089 0.032-0.163 0.090-0.212 0.166l-0.001 0.002c-0.111 0.157-0.234 0.294-0.37 0.416l-0.002 0.002c-0.088 0.089-0.169 0.186-0.242 0.29l-0.005 0.007c-0.079 0.1-0.146 0.197-0.213 0.293-0.037 0.052-0.083 0.096-0.136 0.128l-0.002 0.001c-0.14 0.099-0.242 0.244-0.283 0.413l-0.001 0.005c-0.013 0.032-0.025 0.058-0.039 0.083l0.002-0.003c-0.142 0.268-0.268 0.535-0.418 0.836-0.017 0.048-0.037 0.090-0.060 0.129l0.002-0.003c-0.109 0.201-0.217 0.389-0.322 0.581-0.028 0.039-0.047 0.086-0.054 0.136l-0 0.002c-0.008 0.133-0.046 0.256-0.107 0.364l0.002-0.004q-0.1 0.213-0.188 0.418c-0.008 0.015-0.015 0.034-0.020 0.052l-0.001 0.002c-0.026 0.173-0.077 0.33-0.15 0.473l0.004-0.009c-0.062 0.132-0.112 0.284-0.14 0.444l-0.002 0.011c-0.022 0.196-0.081 0.375-0.171 0.534l0.004-0.007 0.025 0.063 0.025 0.067-0.059 0.125-0.050 0.1c-0.047 0.066-0.075 0.149-0.075 0.238v0c-0.013 0.133-0.035 0.254-0.066 0.371l0.004-0.016c0 0.071-0.029 0.142-0.042 0.209v0.067c-0.026 0.109-0.047 0.241-0.058 0.375l-0.001 0.010c-0.002 0.215-0.031 0.422-0.083 0.619l0.004-0.017h0.050v0.213c-0.002 0.024-0.003 0.053-0.003 0.082s0.001 0.057 0.003 0.085l-0-0.004c0.014 0.049 0.021 0.106 0.021 0.165 0 0.111-0.028 0.215-0.078 0.307l0.002-0.003c-0.006 0.016-0.009 0.034-0.009 0.052s0.003 0.037 0.009 0.053l-0-0.001c0.032 0.074 0.050 0.161 0.050 0.251 0 0.037-0.003 0.073-0.009 0.108l0.001-0.004c-0.006 0.029-0.009 0.063-0.009 0.097 0 0.084 0.021 0.163 0.057 0.232l-0.001-0.003c0.029 0.043 0.046 0.095 0.046 0.152 0 0.004-0 0.008-0 0.012l0-0.001c0.010 0.113 0.043 0.217 0.094 0.309l-0.002-0.004c0.043 0.091 0.081 0.197 0.107 0.307l0.002 0.011c0.039 0.061 0.079 0.133 0.115 0.208l0.006 0.014c0.059 0.144 0.149 0.265 0.262 0.358l0.002 0.001 0.050 0.033c0.141 0.113 0.304 0.205 0.482 0.268l0.012 0.004c0.064 0.017 0.119 0.043 0.169 0.076l-0.002-0.001v-0.033l0.13 0.025c0.026 0.003 0.057 0.005 0.088 0.005s0.061-0.002 0.091-0.005l-0.004 0h0.038c0.094-0.071 0.214-0.114 0.343-0.114 0.012 0 0.024 0 0.035 0.001l-0.002-0c0.069-0.006 0.133-0.023 0.191-0.052l-0.003 0.001c0.070-0.037 0.157-0.077 0.246-0.111l0.017-0.006 0.125-0.050c0.054-0.029 0.121-0.054 0.184-0.084 0.192-0.077 0.357-0.167 0.51-0.273l-0.008 0.005c0.065-0.049 0.142-0.088 0.225-0.112l0.005-0.001c0.045-0.012 0.083-0.035 0.113-0.067l0-0c0.145-0.168 0.316-0.307 0.509-0.413l0.010-0.005c0.095-0.055 0.176-0.12 0.246-0.196l0.001-0.001c0.055-0.056 0.115-0.107 0.18-0.152l0.004-0.003 0.109-0.079c0.081-0.125 0.195-0.221 0.33-0.278l0.005-0.002 0.050-0.042c0.070-0.072 0.15-0.135 0.237-0.185l0.005-0.003c0.052-0.041 0.099-0.085 0.141-0.133l0.001-0.001c0.067-0.071 0.13-0.13 0.192-0.188s0.079-0.071 0.113-0.109c0.018-0.014 0.033-0.031 0.046-0.049l0-0.001c0.119-0.206 0.276-0.376 0.463-0.507l0.005-0.003c0.076-0.055 0.139-0.123 0.186-0.202l0.002-0.003 0.251-0.339c0.038-0.050 0.071-0.1 0.109-0.146s0.076-0.086 0.117-0.125l0.001-0 0.159-0.167c0.044-0.099 0.098-0.185 0.164-0.26l-0.001 0.001c0.234-0.262 0.449-0.552 0.637-0.86l0.015-0.026c0.079-0.117 0.163-0.22 0.255-0.314l-0 0c0.151-0.142 0.151-0.142 0.171-0.297v-0.042l0.054-0.067c0.027-0.037 0.055-0.070 0.084-0.101l-0 0c0.075-0.078 0.136-0.172 0.178-0.274l0.002-0.006c0.029-0.099 0.088-0.183 0.166-0.242l0.001-0.001c0.013-0.11 0.074-0.203 0.162-0.258l0.001-0.001c0.012-0.117 0.058-0.221 0.126-0.306l-0.001 0.001 0.276-0.418c0.026-0.035 0.051-0.075 0.073-0.116l0.002-0.005c0.024-0.069 0.053-0.128 0.090-0.183l-0.002 0.003 0.105-0.284c0.028-0.105 0.1-0.189 0.194-0.233l0.002-0.001v-0.138c0.009-0.024 0.019-0.045 0.030-0.065l-0.001 0.002h-0.050v0.042h-0.038c-0.101 0.037-0.218 0.059-0.34 0.059-0.003 0-0.005 0-0.007-0h-0.041c-0.098 0.059-0.216 0.096-0.342 0.1l-0.001 0c-0.074 0.004-0.144 0.017-0.21 0.039l0.006-0.002c-0.164 0.070-0.355 0.111-0.555 0.113h-0.051c-0.062 0.019-0.135 0.032-0.21 0.037l-0.003 0h-0.050l-0.13-0.079c-0.038-0.030-0.068-0.067-0.087-0.111l-0.001-0.002c-0.010-0.026-0.017-0.056-0.017-0.087 0-0.058 0.020-0.11 0.054-0.152l-0 0-0.209-0.485 0.372 0.322 0.042-0.029c0.079-0.059 0.173-0.103 0.275-0.125l0.005-0.001c0.109-0.029 0.234-0.050 0.351-0.071h0.059c0.123-0.005 0.239-0.033 0.345-0.078l-0.006 0.002c0.087-0.039 0.188-0.064 0.294-0.071l0.003-0 0.548-0.042h0.368c0.105-0.109 0.174-0.255 0.184-0.416l0-0.002v-0.075l0.092-0.084-0.029 0.008 0.042-0.079 0.063-0.105c0.048-0.071 0.086-0.153 0.111-0.241l0.002-0.006c0.019-0.073 0.049-0.137 0.089-0.194l-0.001 0.002c0.016-0.024 0.032-0.051 0.045-0.080l0.001-0.003c0.067-0.13 0.134-0.263 0.192-0.397l0.213-0.527c0.017-0.034 0.033-0.063 0.052-0.090l-0.002 0.003 0.059-0.088c0.086-0.133 0.151-0.288 0.187-0.455l0.002-0.009v-0.059c0.034-0.16 0.101-0.301 0.194-0.42l-0.002 0.002 0.042-0.117 0.138-0.309c0.054-0.28 0.142-0.529 0.262-0.759l-0.007 0.015c0.023-0.041 0.041-0.089 0.050-0.14l0-0.003c0.025-0.195 0.092-0.371 0.191-0.523l-0.003 0.005c0.021-0.050 0.046-0.105 0.063-0.155l0.134-0.477c0.011-0.054 0.032-0.101 0.059-0.144l-0.001 0.002c0.063-0.103 0.111-0.224 0.137-0.353l0.001-0.007c0.023-0.081 0.056-0.152 0.098-0.216l-0.002 0.003c0.011-0.014 0.020-0.031 0.028-0.048l0.001-0.002c0.016-0.226 0.061-0.437 0.131-0.636l-0.005 0.017 0.038-0.142c0.038-0.123 0.078-0.226 0.124-0.325l-0.006 0.015c0.001-0.025 0.002-0.054 0.002-0.084s-0.001-0.059-0.002-0.088l0 0.004c0-0.222 0.059-0.443 0.096-0.661l0.050-0.293v-0.046c0.001-0.013 0.001-0.028 0.001-0.044s-0-0.031-0.001-0.046l0 0.002c-0.002-0.029-0.003-0.063-0.003-0.097 0-0.114 0.013-0.225 0.039-0.331l-0.002 0.010v-0.121l0.071-0.573c0-0.063 0.021-0.121 0.033-0.18l0.050-0.28 0.025-0.176c0.021-0.21 0.065-0.403 0.131-0.586l-0.005 0.017c-0.002-0.025-0.003-0.054-0.003-0.083 0-0.119 0.018-0.235 0.051-0.343l-0.002 0.008 0.021-0.067c0-0.025 0-0.063 0-0.079 0.007-0.235 0.034-0.459 0.080-0.677l-0.004 0.025c0.022-0.095 0.043-0.216 0.057-0.339l0.002-0.016c0.007-0.068 0.018-0.127 0.031-0.186l-0.002 0.010c0.018-0.067 0.029-0.144 0.029-0.223 0-0.029-0.001-0.058-0.004-0.086l0 0.004c-0-0.003-0-0.007-0-0.011 0-0.077 0.017-0.149 0.047-0.214l-0.001 0.003 0.088-0.071c0.022-0.044 0.035-0.096 0.035-0.151 0-0.010-0-0.020-0.001-0.030l0 0.001c-0-0.002-0-0.005-0-0.008 0-0.103 0.023-0.201 0.064-0.289l-0.002 0.004c0.027-0.056 0.047-0.12 0.058-0.188l0-0.004c0.011-0.062 0.027-0.116 0.048-0.168l-0.002 0.005c0.014-0.039 0.030-0.072 0.048-0.104l-0.002 0.003 0.029-0.046c0.025-0.030 0.054-0.057 0.086-0.079l0.001-0.001h0.042c0.028-0.011 0.061-0.018 0.096-0.018 0.098 0 0.184 0.054 0.229 0.134l0.001 0.001h0.025v0.071c0 0.117 0.021 0.222 0.029 0.322 0.004 0.131 0.016 0.257 0.036 0.38l-0.002-0.016c0.002 0.052 0.003 0.112 0.003 0.173 0 0.234-0.018 0.464-0.053 0.688l0.003-0.025c-0.011 0.108-0.030 0.206-0.057 0.301l0.003-0.012-0.025 0.113c0 0.050 0 0.084 0 0.096-0.011 0.223-0.038 0.433-0.080 0.637l0.005-0.027c0 0.092-0.033 0.188-0.050 0.276-0.042 0.284-0.092 0.564-0.146 0.836-0.038 0.201-0.075 0.418-0.109 0.602-0.009 0.066-0.024 0.125-0.044 0.182l0.002-0.006c-0.094 0.257-0.186 0.579-0.258 0.909l-0.010 0.053c0 0.054-0.029 0.096-0.042 0.142-0.029 0.085-0.053 0.185-0.066 0.289l-0.001 0.008c-0.014 0.072-0.037 0.137-0.069 0.196l0.002-0.004-0.029 0.063c-0.018 0.201-0.070 0.385-0.151 0.553l0.004-0.010h0.050l-0.050 0.155c-0.074 0.245-0.117 0.528-0.117 0.82 0 0.006 0 0.012 0 0.017v-0.001 0.050l-0.163 0.472c0.006 0.025 0.010 0.053 0.010 0.082 0 0.069-0.021 0.133-0.057 0.187l0.001-0.001s0 0.046 0 0.067c0.012 0.051 0.019 0.109 0.019 0.169s-0.007 0.118-0.020 0.175l0.001-0.005c0.021 0.096 0.034 0.205 0.034 0.318 0 0.164-0.026 0.322-0.074 0.471l0.003-0.011v0.033c-0.004 0.123-0.019 0.241-0.044 0.355l0.002-0.012c-0.017 0.073-0.031 0.16-0.037 0.249l-0 0.006c-0.004 0.133-0.022 0.259-0.053 0.38l0.003-0.012c-0.024 0.092-0.038 0.197-0.038 0.306 0 0.007 0 0.014 0 0.022v-0.001 0.088c0.002 0.027 0.003 0.058 0.003 0.090 0 0.172-0.032 0.337-0.090 0.488l0.003-0.009s0 0 0 0.029v0.105l-0.067 0.117c0.012 0.051 0.019 0.109 0.019 0.169s-0.007 0.118-0.020 0.175l0.001-0.005c-0.028 0.145-0.044 0.312-0.044 0.483 0 0.036 0.001 0.072 0.002 0.108l-0-0.005v0.059c-0.011 0.037-0.023 0.068-0.036 0.097l0.002-0.005c-0.031 0.057-0.049 0.125-0.049 0.197 0 0.019 0.001 0.038 0.004 0.056l-0-0.002c0.004 0.033 0.006 0.072 0.006 0.111 0 0.148-0.033 0.288-0.092 0.414l0.003-0.006c-0.034 0.071-0.068 0.158-0.096 0.248l-0.004 0.015c-0.002 0.015-0.003 0.032-0.003 0.050s0.001 0.035 0.003 0.052l-0-0.002c0.005 0.033 0.009 0.071 0.009 0.11 0 0.112-0.026 0.218-0.073 0.312l0.002-0.004v0.163c0.117 0.033 0.234 0.079 0.347 0.117s0.192 0.071 0.288 0.1h0.092c0.226 0.050 0.426 0.134 0.606 0.247l-0.008-0.005 0.042 0.025c0.027 0.022 0.057 0.042 0.089 0.057l0.003 0.001c0.197 0.083 0.366 0.178 0.522 0.29l-0.008-0.006 0.418 0.351c0.029 0.020 0.053 0.045 0.070 0.074l0.001 0.001c0.067 0.075 0.125 0.134 0.184 0.188 0.164 0.145 0.303 0.313 0.413 0.5l0.005 0.010c0.054 0.096 0.121 0.197 0.188 0.293 0.040 0.065 0.079 0.14 0.113 0.219l0.004 0.011c0 0.042 0.038 0.079 0.054 0.121 0.057 0.119 0.107 0.258 0.143 0.403l0.003 0.015c0 0.109 0.042 0.205 0.063 0.301 0.042 0.159 0.072 0.345 0.083 0.536l0 0.008v0.113c0.008 0.075 0.012 0.163 0.012 0.251s-0.005 0.176-0.013 0.262l0.001-0.011c0.002 0.019 0.003 0.042 0.003 0.065s-0.001 0.045-0.003 0.068l0-0.003c-0.004 0.034-0.006 0.074-0.006 0.115s0.002 0.081 0.006 0.12l-0-0.005c0.001 0.009 0.001 0.019 0.001 0.029 0 0.050-0.010 0.098-0.027 0.141l0.001-0.003c-0.027 0.079-0.052 0.176-0.069 0.276l-0.002 0.013c-0.017 0.108-0.039 0.201-0.067 0.291l0.004-0.015-0.075 0.272c-0.067 0.226-0.13 0.452-0.209 0.677-0.031 0.067-0.066 0.125-0.106 0.178l0.002-0.002-0.029 0.042c-0.115 0.32-0.231 0.584-0.361 0.838l0.019-0.040v0.042c-0.029 0.059-0.059 0.117-0.092 0.171l-0.025 0.038c-0.041 0.073-0.088 0.136-0.142 0.193l0-0c-0.073 0.068-0.132 0.15-0.174 0.242l-0.002 0.005c-0.031 0.066-0.070 0.123-0.117 0.172l0-0c-0.212 0.276-0.496 0.487-0.823 0.606l-0.013 0.004c-0.121 0.050-0.262 0.080-0.41 0.080-0.313 0-0.595-0.132-0.794-0.343l-0-0.001c-0.226-0.238-0.415-0.514-0.556-0.817l-0.008-0.019-0.042-0.096c-0.165-0.384-0.309-0.839-0.409-1.31l-0.009-0.049c-0.021-0.105-0.042-0.209-0.071-0.309-0.026-0.089-0.041-0.192-0.041-0.298 0-0.029 0.001-0.058 0.003-0.086l-0 0.004c-0.054-0.156-0.086-0.335-0.088-0.522v-0.001c0-0.071 0-0.146 0-0.213-0.002-0.016-0.003-0.035-0.003-0.054s0.001-0.038 0.003-0.057l-0 0.002c0.004-0.062 0.006-0.136 0.006-0.209s-0.002-0.147-0.007-0.219l0 0.010c0-0.159 0-0.322 0-0.481 0.004-0.049 0.006-0.106 0.006-0.163s-0.002-0.114-0.007-0.17l0 0.007c-0.004-0.060-0.006-0.13-0.006-0.2 0-0.272 0.033-0.536 0.094-0.788l-0.005 0.023c0.002-0.037 0.003-0.080 0.003-0.123s-0.001-0.086-0.004-0.129l0 0.006c0.003-0.164 0.028-0.32 0.070-0.469l-0.003 0.013c0.020-0.085 0.032-0.183 0.033-0.283l0-0.001c0.020-0.373 0.080-0.723 0.175-1.058l-0.008 0.034c0.003-0.013 0.004-0.028 0.004-0.044s-0.002-0.031-0.005-0.045l0 0.001c-0.003-0.037-0.005-0.080-0.005-0.123s0.002-0.086 0.005-0.129l-0 0.006-0.029-0.042c-0.056-0.023-0.12-0.037-0.188-0.037-0.031 0-0.061 0.003-0.091 0.008l0.003-0c-0.047 0.005-0.102 0.007-0.158 0.007-0.164 0-0.323-0.022-0.473-0.064l0.012 0.003c-0.107-0.021-0.23-0.033-0.355-0.033h-0.176c-0.046 0.088-0.092 0.163-0.138 0.234-0.017 0.019-0.033 0.041-0.045 0.065l-0.001 0.002c-0.112 0.297-0.24 0.552-0.391 0.791l0.010-0.018-0.084 0.142c-0.071 0.13-0.151 0.259-0.226 0.385l-0.163 0.276c-0.123 0.252-0.252 0.467-0.398 0.67l0.009-0.013c-0.046 0.067-0.092 0.151-0.138 0.23l-0.059 0.1c-0.008 0.026-0.021 0.048-0.038 0.067l0-0c-0.11 0.139-0.216 0.294-0.311 0.457l-0.011 0.019c-0.142 0.247-0.295 0.46-0.468 0.657l0.004-0.004-0.046 0.071c-0.022 0.037-0.044 0.068-0.068 0.098l0.001-0.001-0.029 0.046c-0.025 0.033-0.046 0.067-0.071 0.096l-0.389 0.468c-0.031 0.031-0.058 0.067-0.078 0.106l-0.001 0.002c-0.096 0.169-0.224 0.309-0.376 0.415l-0.004 0.003c-0.004 0.031-0.011 0.059-0.022 0.086l0.001-0.002c-0.038 0.072-0.082 0.134-0.134 0.189l0-0-0.171 0.163-0.452 0.472c-0.079 0.088-0.163 0.18-0.251 0.259-0.108 0.095-0.201 0.202-0.28 0.32l-0.004 0.006c-0.072 0.114-0.177 0.201-0.301 0.249l-0.004 0.001c-0.102 0.053-0.189 0.118-0.263 0.196l-0 0-0.105 0.096c-0.084 0.071-0.159 0.146-0.238 0.222s-0.134 0.13-0.201 0.188c-0.045 0.042-0.094 0.082-0.146 0.118l-0.005 0.003-0.071 0.059-0.125 0.084c-0.037 0.022-0.068 0.044-0.098 0.068l0.001-0.001-0.071 0.059c-0.116 0.11-0.255 0.197-0.41 0.253l-0.008 0.003c-0.304 0.237-0.656 0.434-1.035 0.573l-0.027 0.009c-0.217 0.11-0.47 0.18-0.739 0.196l-0.005 0c-0.135 0.056-0.292 0.088-0.456 0.088-0.001 0-0.003 0-0.004 0h0zM25.373 30.788l0.050 0.038c0.13 0.105 0.364 0 0.485-0.138l0.105-0.092c0.21-0.161 0.384-0.359 0.513-0.584l0.005-0.010c0.117-0.209 0.235-0.386 0.364-0.555l-0.008 0.011c0.025-0.041 0.047-0.088 0.062-0.138l0.001-0.004c0.052-0.164 0.109-0.303 0.175-0.436l-0.008 0.017c0.046-0.113 0.096-0.226 0.134-0.343l0.163-0.544c0.067-0.247 0.135-0.448 0.214-0.645l-0.014 0.038c0.018-0.041 0.034-0.090 0.045-0.141l0.001-0.006v-0.042c0.025-0.088 0.046-0.176 0.075-0.301 0-0.029 0-0.096 0-0.163-0.012-0.080-0.019-0.172-0.019-0.265s0.007-0.186 0.020-0.276l-0.001 0.010c0.001-0.009 0.001-0.019 0.001-0.029s-0-0.020-0.001-0.031l0 0.001c-0.033-0.201-0.067-0.389-0.092-0.581l-0.050-0.217-0.038-0.092-0.046-0.1c-0.025-0.071-0.054-0.146-0.079-0.222l-0.033-0.13c-0.025-0.029-0.063-0.092-0.105-0.155-0.068-0.103-0.141-0.226-0.206-0.353l-0.011-0.023c-0.017-0.037-0.040-0.069-0.067-0.096v0c-0.025-0.025-0.042-0.050-0.063-0.075s-0.096-0.125-0.142-0.142c-0.057-0.021-0.105-0.056-0.142-0.1l-0-0.001c-0.069-0.072-0.145-0.136-0.229-0.189l-0.005-0.003c-0.102-0.067-0.191-0.138-0.272-0.218l0 0c-0.128-0.116-0.282-0.208-0.451-0.265l-0.009-0.003c-0.034-0.003-0.064-0.017-0.088-0.038l0 0-0.171-0.075c-0.192-0.101-0.422-0.201-0.66-0.285l-0.038-0.012c-0.077-0.028-0.143-0.061-0.205-0.099l0.005 0.003c-0.018 0.004-0.038 0.006-0.059 0.006s-0.041-0.002-0.060-0.007l0.002 0c-0.010 0.224-0.048 0.436-0.109 0.637l0.005-0.018c-0.002 0.022-0.002 0.047-0.002 0.073s0.001 0.051 0.003 0.077l-0-0.003c0 0.042 0 0.084 0 0.125l-0.167 1.162-0.033 0.046c0.007 0.035 0.011 0.076 0.011 0.118 0 0.076-0.013 0.149-0.037 0.217l0.001-0.005c-0.006 0.025-0.010 0.054-0.010 0.084s0.004 0.058 0.011 0.086l-0-0.002c0.012 0.088 0.018 0.189 0.018 0.292 0 0.18-0.020 0.355-0.059 0.522l0.003-0.016c-0.001 0.008-0.001 0.018-0.001 0.027s0 0.019 0.001 0.028l-0-0.001c0.005 0.027 0.008 0.059 0.008 0.091 0 0.076-0.017 0.148-0.047 0.213l0.001-0.003c0.046 0.1 0.073 0.217 0.073 0.341 0 0.061-0.007 0.121-0.019 0.179l0.001-0.006c-0.002 0.011-0.003 0.024-0.003 0.038s0.001 0.026 0.003 0.039l-0-0.001c0.016 0.054 0.025 0.116 0.025 0.18s-0.009 0.126-0.026 0.184l0.001-0.005c-0.002 0.010-0.003 0.022-0.003 0.033s0.001 0.023 0.003 0.035l-0-0.001c0.025 0.171 0.042 0.343 0.059 0.514 0.020 0.272 0.052 0.518 0.098 0.76l-0.006-0.041c0.013 0.069 0.030 0.129 0.053 0.187l-0.002-0.007 0.029 0.079c0.023 0.050 0.043 0.108 0.057 0.169l0.001 0.007c0.015 0.1 0.052 0.189 0.106 0.265l-0.001-0.002c0.053 0.065 0.092 0.144 0.112 0.23l0.001 0.004c0.035 0.142 0.074 0.26 0.12 0.375l-0.007-0.020c0.038 0.079 0.085 0.147 0.142 0.205l-0-0 0.029 0.038c0.042 0.046 0.078 0.098 0.107 0.155l0.002 0.004c0.037 0.072 0.079 0.133 0.127 0.19l-0.001-0.001c0.043 0.056 0.085 0.12 0.125 0.187l0.005 0.009c0.034 0.014 0.073 0.021 0.115 0.021 0.007 0 0.013-0 0.020-0.001l-0.001 0zM23.546 22.033l0.222 0.025 0.23 0.050v-0.084c0-0.050 0-0.1 0.021-0.151h-0.029c-0.102 0.024-0.188 0.051-0.272 0.084l0.013-0.004c-0.052 0.029-0.113 0.055-0.176 0.077l-0.008 0.002zM24.684 17.016l-0.017 0.125-0.13 0.33-0.088 0.251c-0.063 0.18-0.125 0.355-0.197 0.527l-0.155 0.418c-0.050 0.155-0.1 0.305-0.159 0.456s-0.092 0.201-0.142 0.301l-0.059 0.109c0 0.025-0.025 0.042-0.038 0.063-0.035 0.126-0.082 0.235-0.142 0.337l0.004-0.007c-0.028 0.044-0.052 0.096-0.070 0.15l-0.001 0.005c-0.1 0.27-0.196 0.488-0.302 0.7l0.018-0.039c-0.050 0.113-0.105 0.226-0.155 0.343-0.084 0.205-0.188 0.418-0.314 0.656l0.418-0.117c0.075-0.029 0.163-0.046 0.254-0.046 0.028 0 0.056 0.002 0.084 0.005l-0.003-0c0.026-0.017 0.057-0.031 0.089-0.041l0.003-0.001 0.109-0.038c0.065-0.028 0.14-0.044 0.22-0.044s0.155 0.016 0.223 0.046l-0.004-0.001c0-0.063 0.033-0.13 0.054-0.192 0.010-0.029 0.017-0.063 0.021-0.098l0-0.002c-0.001-0.019-0.002-0.042-0.002-0.064 0-0.104 0.014-0.204 0.041-0.299l-0.002 0.008v-0.075c0.014-0.060 0.026-0.135 0.033-0.21l0.001-0.007c0.020-0.149 0.048-0.281 0.084-0.409l-0.005 0.020c0.003-0.018 0.004-0.038 0.004-0.059s-0.002-0.041-0.005-0.061l0 0.002v-0.050l0.038-0.355c0.009-0.072 0.023-0.136 0.040-0.198l-0.002 0.010c0.025-0.081 0.040-0.174 0.040-0.27 0-0.023-0.001-0.045-0.002-0.067l0 0.003c-0.003-0.042-0.005-0.091-0.005-0.14s0.002-0.098 0.005-0.147l-0 0.007 0.084-0.652c0.050-0.314 0.079-0.623 0.105-0.924 0.008-0.075 0.008-0.159 0.008-0.242zM17.706 19.232l0.146 0.075c0.151 0.050 0.267 0.167 0.317 0.314l0.001 0.003c0.025 0.039 0.057 0.071 0.095 0.095l0.001 0.001c0.119 0.033 0.219 0.101 0.292 0.191l0.001 0.001h0.113s0-0.042-0.054-0.105l-0.105-0.138c-0.064-0.093-0.148-0.168-0.247-0.22l-0.004-0.002c-0.158-0.083-0.343-0.157-0.535-0.212l-0.021-0.005zM23.601 19.073h-0.008zM16.23 19.073h0.075c0.013 0.002 0.027 0.003 0.042 0.003 0.044 0 0.086-0.010 0.122-0.029l-0.002 0.001c-0.031 0.002-0.066 0.003-0.102 0.003s-0.072-0.001-0.107-0.003l0.005 0zM23.755 18.575h0.025z"></path>
<path d="M30.821 19.269c-0.145 0.095-0.314 0.169-0.494 0.215l-0.012 0.002c-0.106 0.045-0.23 0.084-0.359 0.111l-0.013 0.002c-0.034 0.004-0.065 0.015-0.093 0.030l0.001-0.001c-0.12 0.073-0.258 0.138-0.403 0.188l-0.015 0.005c-0.116 0.053-0.255 0.104-0.399 0.142l-0.019 0.004c-0.092 0.029-0.188 0.050-0.276 0.084-0.132 0.055-0.304 0.115-0.48 0.166l-0.038 0.010-0.121 0.029-0.096 0.092c-0.335 0.015-0.643 0.122-0.901 0.297l0.006-0.004c-0.097 0.008-0.187 0.024-0.274 0.048l0.010-0.002c-0.172 0.077-0.372 0.137-0.58 0.17l-0.013 0.002c-0.265 0.061-0.489 0.13-0.706 0.213l0.037-0.012c-0.23 0.075-0.468 0.138-0.69 0.222-0.21 0.054-0.386 0.113-0.556 0.182l0.029-0.010c-0.018 0.002-0.038 0.003-0.059 0.003s-0.041-0.001-0.061-0.003l0.003 0-0.13 0.029c-0.033 0.167 0.297 0.13 0.531 0.050 0.125-0.042 0.251-0.096 0.38-0.125 0.152-0.042 0.275-0.085 0.396-0.134l-0.024 0.009c0.178-0.080 0.389-0.152 0.607-0.204l0.025-0.005c0.272-0.059 0.552-0.142 0.836-0.222 0.142-0.042 0.28-0.109 0.418-0.155s0.326-0.096 0.472-0.155c0.232-0.101 0.503-0.183 0.786-0.231l0.021-0.003 0.113-0.084c0.139-0.030 0.261-0.068 0.377-0.118l-0.013 0.005c0.101-0.066 0.218-0.119 0.343-0.153l0.008-0.002c0.306-0.087 0.559-0.178 0.804-0.284l-0.043 0.016c0.171-0.071 0.36-0.13 0.539-0.197l0.297-0.121c0.192-0.071 0.217-0.092 0.18-0.167-0.016-0.025-0.034-0.047-0.054-0.067l-0-0c-0.111 0.035-0.206 0.073-0.296 0.118l0.012-0.005z"></path>
<path d="M24.291 21.778c-0.005 0-0.010 0-0.015 0-0.090 0-0.173-0.028-0.241-0.076l0.001 0.001c-0.049-0.045-0.080-0.109-0.080-0.18 0-0.018 0.002-0.035 0.005-0.051l-0 0.002v-0.1l0.297-0.063c0.099-0.042 0.217-0.081 0.34-0.11l0.016-0.003c0.067-0.021 0.138-0.038 0.205-0.063 0.142-0.054 0.293-0.1 0.443-0.146l0.251-0.079 0.088-0.029c0.163-0.063 0.363-0.123 0.568-0.17l0.030-0.006 0.1-0.021c0.171-0.023 0.326-0.070 0.47-0.138l-0.010 0.004c0.065-0.029 0.141-0.048 0.221-0.050l0.001-0h0.046c0.219-0.149 0.485-0.246 0.772-0.267l0.005-0 0.125-0.033 0.117-0.084 0.117-0.033c0.2-0.053 0.367-0.11 0.529-0.177l-0.027 0.010 0.18-0.054 0.105-0.029 0.096-0.033c0.111-0.028 0.207-0.064 0.298-0.109l-0.009 0.004c0.059-0.029 0.13-0.054 0.197-0.079 0.080-0.021 0.149-0.054 0.211-0.098l-0.002 0.001c0.050-0.034 0.109-0.056 0.174-0.063l0.002-0c0.080-0.014 0.152-0.035 0.219-0.065l-0.006 0.002 0.13-0.046c0.174-0.044 0.328-0.11 0.467-0.196l-0.007 0.004c0.058-0.035 0.124-0.065 0.194-0.086l0.006-0.002 0.117-0.042 0.105-0.042 0.071 0.088c0.028 0.029 0.054 0.060 0.078 0.094l0.002 0.002c0.012 0.029 0.020 0.063 0.020 0.098s-0.007 0.069-0.020 0.1l0.001-0.002c-0.042 0.1-0.146 0.138-0.284 0.188l-0.293 0.121-0.192 0.063c-0.113 0.038-0.222 0.075-0.326 0.121-0.203 0.089-0.46 0.181-0.723 0.259l-0.051 0.013c-0.119 0.029-0.224 0.075-0.317 0.136l0.004-0.002c-0.075 0.044-0.162 0.077-0.254 0.095l-0.005 0.001-0.117 0.029-0.155 0.096c-0.291 0.050-0.551 0.127-0.797 0.23l0.024-0.009c-0.082 0.035-0.182 0.069-0.285 0.097l-0.016 0.004-0.184 0.059-0.171 0.063c-0.071 0.033-0.157 0.066-0.246 0.093l-0.014 0.003c-0.255 0.075-0.552 0.167-0.836 0.226-0.213 0.046-0.399 0.107-0.576 0.183l0.020-0.008-0.105 0.042c-0.091 0.039-0.204 0.078-0.32 0.109l-0.019 0.004q-0.121 0.029-0.238 0.075l-0.134 0.046c-0.115 0.043-0.247 0.072-0.386 0.079l-0.003 0z"></path>
<path d="M12.083 30.846s0 0 0.029 0.029 0 0 0 0.025 0 0-0.038-0.033z"></path>
<path d="M12.087 31.068l-0.188-0.184 0.050-0.125 0.038-0.054 0.163-0.050 0.146 0.146-0.025 0.13-0.088 0.096zM12.087 30.846l-0.079-0.071z"></path>
<path d="M30.691 30.691s-0.029 0.134-0.146-0.046c-0.033-0.030-0.059-0.066-0.079-0.107l-0.001-0.002c-0.047-0.020-0.087-0.045-0.122-0.076l0.001 0-0.063-0.042c-0.050-0.025-0.1-0.033-0.13-0.088s-0.042 0-0.054 0-0.105 0-0.155-0.025c-0.045-0.009-0.084-0.020-0.122-0.035l0.005 0.002h-0.029c-0.015 0.006-0.032 0.009-0.050 0.009s-0.035-0.003-0.051-0.010l0.001 0c-0.019-0.008-0.041-0.012-0.065-0.012s-0.046 0.005-0.066 0.013l0.001-0s-0.033 0-0.050 0h-0.054c-0.053 0.006-0.1 0.015-0.146 0.027l0.008-0.002c-0.050 0.005-0.095 0.020-0.136 0.043l0.002-0.001c-0.063 0.021-0.113 0.067-0.176 0.084s-0.033 0.025-0.042 0.042c-0.016 0.024-0.039 0.043-0.066 0.054l-0.001 0c-0.040 0.015-0.070 0.049-0.079 0.091l-0 0.001c-0.002 0.014-0.010 0.026-0.021 0.033l-0 0c-0.029 0-0.033 0.050-0.046 0.079-0.027 0.045-0.049 0.096-0.062 0.151l-0.001 0.004c-0.006 0.017-0.010 0.038-0.010 0.059s0.003 0.041 0.010 0.060l-0-0.001c0.067 0.060 0.154 0.098 0.25 0.104l0.001 0c0.012 0.005 0.027 0.008 0.042 0.008s0.029-0.003 0.043-0.008l-0.001 0c0.006-0.002 0.013-0.004 0.021-0.004s0.015 0.001 0.021 0.004l-0-0c0.061-0.006 0.114-0.032 0.155-0.071l-0 0h0.025c0.054-0.021 0.099-0.051 0.138-0.088l-0 0c0.042-0.071 0.105-0.121 0.121-0.201s0-0.079 0.029-0.121c-0.007-0.056-0.016-0.105-0.027-0.152l0.002 0.010c0-0.038-0.025-0.067-0.038-0.1-0.011-0.021-0.021-0.046-0.029-0.072l-0.001-0.003s0-0.025-0.033-0.029c-0.022-0.004-0.038-0.023-0.038-0.045 0-0.003 0-0.006 0.001-0.009l-0 0c-0.046-0.032-0.098-0.057-0.155-0.074l-0.004-0.001c-0.032-0.011-0.056-0.035-0.067-0.066l-0-0.001c0.001-0.006 0.001-0.012 0.001-0.019s-0-0.013-0.001-0.020l0 0.001c-0.006-0.011-0.009-0.024-0.009-0.038s0.003-0.027 0.010-0.038l-0 0v-0.054l0.113-0.050c0.025 0 0.042 0.050 0.084 0.046 0.029 0.006 0.050 0.031 0.050 0.061 0 0.002-0 0.004-0 0.006l0-0c-0.001 0.004-0.001 0.008-0.001 0.013 0 0.031 0.017 0.057 0.042 0.070l0 0c0.023 0.024 0.043 0.051 0.058 0.082l0.001 0.002c0.009 0.022 0.017 0.047 0.021 0.073l0 0.002 0.054 0.025c0 0 0 0.001 0 0.002 0 0.058 0.034 0.108 0.083 0.132l0.001 0c0.016 0.013 0.027 0.033 0.027 0.056 0 0.006-0.001 0.011-0.002 0.016l0-0c-0.005 0.014-0.008 0.031-0.008 0.048s0.003 0.034 0.008 0.049l-0-0.001c0.001 0.004 0.001 0.009 0.001 0.015s-0 0.010-0.001 0.015l0-0c-0.003 0.019-0.005 0.042-0.005 0.065s0.002 0.045 0.005 0.067l-0-0.002c0 0.038 0 0.084-0.042 0.109-0.030 0.019-0.050 0.051-0.054 0.087l-0 0.001c-0.011 0.049-0.039 0.090-0.079 0.117l-0.001 0-0.088 0.075c-0.024 0.022-0.050 0.043-0.077 0.061l-0.002 0.001c-0.004 0.002-0.009 0.003-0.015 0.003s-0.010-0.001-0.015-0.003l0 0c-0.067-0.021-0.105 0-0.155 0.050h-0.021c-0.072 0.036-0.156 0.059-0.245 0.063l-0.001 0h-0.042c-0.069-0.014-0.128-0.050-0.171-0.1l-0-0c-0.010-0.023-0.026-0.041-0.046-0.054l-0-0c-0.038 0-0.046-0.046-0.042-0.084-0.005-0.021-0.009-0.044-0.009-0.069s0.003-0.048 0.009-0.071l-0 0.002c0.001-0.004 0.001-0.009 0.001-0.015s-0-0.010-0.001-0.015l0 0.001c-0.001-0.007-0.002-0.014-0.002-0.022 0-0.036 0.013-0.070 0.035-0.095l-0 0c0.028-0.034 0.051-0.075 0.066-0.119l0.001-0.003c0.017-0.052 0.059-0.091 0.112-0.104l0.001-0s0-0.038 0-0.054h0.046c0.032-0.004 0.058-0.021 0.075-0.046l0-0c0.036-0.032 0.077-0.058 0.122-0.078l0.003-0.001c0.045-0.013 0.083-0.030 0.119-0.051l-0.002 0.001c0.035-0.022 0.077-0.035 0.122-0.035 0.009 0 0.017 0 0.026 0.001l-0.001-0c0.038 0 0.046 0 0.042-0.038 0.011 0.001 0.023 0.002 0.036 0.002s0.025-0.001 0.037-0.002l-0.002 0c0.038-0.021 0.067-0.029 0.096 0 0.008 0.009 0.020 0.014 0.033 0.014s0.025-0.006 0.033-0.014l0-0c0.010-0.006 0.022-0.010 0.036-0.010s0.025 0.004 0.036 0.010l-0-0c0.017 0.010 0.037 0.016 0.059 0.016s0.042-0.006 0.059-0.016l-0.001 0c0.063 0.033 0.138 0 0.192 0.033s0.134 0.046 0.213 0.063c0.066 0.019 0.123 0.051 0.172 0.093l-0.001-0.001c0.008 0.010 0.015 0.021 0.021 0.033l0 0.001c0.002 0.010 0.002 0.022 0.002 0.033s-0.001 0.023-0.003 0.035l0-0.001c0.010-0.012 0.021-0.023 0.033-0.033l0-0c0.014 0.020 0.028 0.038 0.042 0.055l-0.001-0.001h0.071c0.054 0 0.050 0 0.071 0.059 0.010 0.019 0.024 0.035 0.041 0.046l0 0c0.029 0.025 0.051 0.056 0.066 0.090l0.001 0.002z"></path>
<path d="M28.848 31.398h-0.067c-0.093-0.021-0.172-0.070-0.229-0.137l-0-0.001v-0.029c-0.069-0.040-0.114-0.113-0.114-0.196 0-0.009 0-0.018 0.002-0.026l-0 0.001c-0.001-0.012-0.002-0.026-0.002-0.040 0-0.052 0.010-0.101 0.028-0.146l-0.001 0.003c-0-0.001-0-0.003-0-0.004 0-0.078 0.030-0.148 0.080-0.201l-0 0c0.013-0.018 0.024-0.039 0.033-0.061l0.001-0.002c0.022-0.054 0.053-0.1 0.092-0.138v0l0.1-0.1c0.025-0.013 0.055-0.023 0.086-0.029l0.002-0c0.035-0.043 0.080-0.076 0.132-0.095l0.002-0.001 0.050-0.025c-0.001-0.006-0.001-0.012-0.001-0.019s0-0.013 0.001-0.020l-0 0.001c-0.029-0.040-0.047-0.091-0.047-0.146 0-0.029 0.005-0.056 0.014-0.082l-0.001 0.002 0.033-0.113 0.238-0.113 0.105 0.050h0.063l0.079 0.067c0.032 0.035 0.053 0.079 0.058 0.129l0 0.001c0.022 0.022 0.041 0.047 0.058 0.073l0.001 0.002c0.018-0.005 0.039-0.007 0.061-0.007s0.042 0.003 0.062 0.008l-0.002-0 0.063-0.046 0.079 0.042c0.011-0.001 0.023-0.001 0.036-0.001 0.050 0 0.098 0.008 0.143 0.023l-0.003-0.001c0.053 0.009 0.101 0.025 0.145 0.047l-0.003-0.001 0.054 0.025c0.088 0.016 0.165 0.056 0.226 0.113l-0-0c0.029 0.017 0.051 0.041 0.066 0.070l0 0.001 0.042 0.033c0.072 0.013 0.129 0.065 0.15 0.132l0 0.001c0.039 0.025 0.069 0.061 0.087 0.103l0.001 0.001-0.1 0.084v0.067l0.146 0.059c-0.024 0.076-0.090 0.132-0.17 0.142l-0.001 0c-0.111-0.006-0.205-0.070-0.254-0.161l-0.001-0.002-0.046-0.054-0.067 0.059-0.025-0.134v-0.067l-0.038 0.038-0.125-0.054c-0.043-0.017-0.081-0.039-0.113-0.067l0 0c-0.001 0-0.003 0-0.004 0-0.048 0-0.094-0.009-0.136-0.026l0.003 0.001-0.105-0.033s0 0 0 0.029v0.059l-0.025 0.096c0.002 0.011 0.003 0.023 0.003 0.036s-0.001 0.025-0.003 0.037l0-0.001c0.001 0.008 0.001 0.018 0.001 0.027 0 0.082-0.038 0.155-0.097 0.202l-0 0c-0.016 0.079-0.060 0.146-0.12 0.192l-0.001 0.001c-0.033 0.033-0.068 0.063-0.106 0.090l-0.003 0.002c-0.027 0.026-0.057 0.050-0.090 0.070l-0.002 0.001-0.054 0.033h-0.092l-0.033 0.029-0.063 0.025c-0.082 0.041-0.178 0.066-0.28 0.067h-0zM28.848 30.938c0.035 0.016 0.076 0.027 0.119 0.033l0.002 0c0.031-0.017 0.069-0.028 0.108-0.029h0c0.022-0.009 0.042-0.020 0.059-0.034l-0 0 0.071-0.038 0.067-0.033c0.015-0.027 0.032-0.050 0.050-0.071l-0 0c0.014-0.018 0.028-0.039 0.040-0.060l0.001-0.003 0.025-0.121s0 0 0-0.021c-0.001-0.006-0.001-0.012-0.001-0.019s0.001-0.013 0.002-0.020l-0 0.001v-0.046c-0.031 0.004-0.059 0.012-0.085 0.026l0.001-0.001-0.075 0.038c-0.026 0.018-0.057 0.034-0.089 0.045l-0.003 0.001c-0.029 0.041-0.067 0.074-0.111 0.095l-0.002 0.001v0.054l-0.063 0.046v0.042c-0.017 0.026-0.031 0.057-0.041 0.089l-0.001 0.003zM28.898 30.792h-0.025c0.003-0.003 0.006-0.008 0.008-0.012l0-0zM29.069 30.595v0zM29.107 30.562v0zM30.16 30.461h-0.029zM30.018 30.407v0zM29.341 29.726l-0.071 0.121 0.117-0.105z"></path>
<path d="M30.102 30.252v0 0s0 0 0 0z"></path>
<path d="M30.102 30.252s0 0 0 0v0 0z"></path>
<path d="M30.181 30.415h-0.259l0.054-0.251 0.113-0.071 0.192 0.046v0.159l-0.054 0.088zM30.052 30.227h0.050z"></path>
</svg>
